<?xml version="1.0" encoding="iso-8859-1"?>
<!-- Uploaded to: SVG Repo, www.svgrepo.com, Generator: SVG Repo Mixer Tools -->
<svg height="800px" width="800px" version="1.1" id="Layer_1" xmlns="http://www.w3.org/2000/svg" xmlns:xlink="http://www.w3.org/1999/xlink" 
	 viewBox="0 0 303.188 303.188" xml:space="preserve">
<g>
	<polygon style="fill:#E8E8E8;" points="219.821,0 32.842,0 32.842,303.188 270.346,303.188 270.346,50.525 	"/>
	<polygon style="fill:#430098;" points="227.64,25.263 32.842,25.263 32.842,0 219.821,0 	"/>
	<g>
		<path style="fill:#A4A9AD;" d="M121.394,273.871l-2.362-8.992h-15.589l-2.428,8.992H86.771l15.653-48.176h17.295l15.852,48.176
			H121.394z M116.341,254.246l-2.068-7.876c-0.481-1.75-1.066-4.015-1.756-6.793c-0.689-2.778-1.143-4.769-1.361-5.973
			c-0.197,1.116-0.586,2.954-1.166,5.513c-0.579,2.56-1.865,7.603-3.856,15.129L116.341,254.246L116.341,254.246z"/>
		<path style="fill:#A4A9AD;" d="M169.242,273.871h-28.485v-47.979h28.485v10.403H153.72v7.548h14.374v10.403H153.72v9.058h15.522
			V273.871z"/>
		<path style="fill:#A4A9AD;" d="M212.463,241.152c0,5.361-1.581,9.501-4.742,12.421c-3.162,2.921-7.652,4.381-13.472,4.381h-3.643
			v15.917h-12.963v-47.979h16.605c6.059,0,10.61,1.324,13.652,3.971C210.941,232.51,212.463,236.273,212.463,241.152z
			 M190.607,247.387h2.362c1.947,0,3.495-0.546,4.644-1.641c1.149-1.094,1.724-2.604,1.724-4.529c0-3.238-1.795-4.857-5.383-4.857
			h-3.347V247.387z"/>
	</g>
	<g>
		<path style="fill:#430098;" d="M136.978,172.085l-6.664-21.877H96.806l-6.664,21.877H69.145l32.438-92.287h23.826l32.564,92.287
			H136.978z M125.661,133.863c-6.161-19.823-9.629-31.034-10.404-33.633c-0.776-2.598-1.331-4.652-1.666-6.161
			c-1.383,5.365-5.344,18.63-11.882,39.794H125.661z"/>
		<path style="fill:#430098;" d="M199.843,173.343c-11.316,0-20.159-3.122-26.529-9.367c-6.371-6.244-9.556-15.088-9.556-26.529
			c0-11.776,2.944-20.881,8.833-27.315c5.887-6.433,14.028-9.65,24.423-9.65c9.933,0,17.665,2.829,23.198,8.487
			c5.531,5.658,8.298,13.475,8.298,23.449v9.304h-45.327c0.21,5.449,1.824,9.703,4.842,12.762c3.018,3.06,7.25,4.589,12.699,4.589
			c4.232,0,8.234-0.44,12.007-1.32c3.773-0.88,7.711-2.284,11.819-4.212v14.836c-3.354,1.677-6.938,2.923-10.751,3.74
			C209.985,172.934,205.333,173.343,199.843,173.343z M197.14,114.123c-4.066,0-7.252,1.289-9.556,3.866
			c-2.306,2.578-3.626,6.234-3.96,10.97h26.906c-0.085-4.736-1.32-8.393-3.709-10.97
			C204.433,115.412,201.204,114.123,197.14,114.123z"/>
	</g>
	<polygon style="fill:#D1D3D3;" points="219.821,50.525 270.346,50.525 219.821,0 	"/>
</g>
</svg>