<?xml version="1.0" encoding="iso-8859-1"?>
<!-- Uploaded to: SVG Repo, www.svgrepo.com, Generator: SVG Repo Mixer Tools -->
<svg height="800px" width="800px" version="1.1" id="Layer_1" xmlns="http://www.w3.org/2000/svg" xmlns:xlink="http://www.w3.org/1999/xlink" 
	 viewBox="0 0 303.188 303.188" xml:space="preserve">
<g>
	<polygon style="fill:#E8E8E8;" points="219.821,0 32.842,0 32.842,303.188 270.346,303.188 270.346,50.525 	"/>
	<polygon style="fill:#FB9200;" points="227.639,25.263 32.842,25.263 32.842,0 219.821,0 	"/>
	<g>
		<path style="fill:#A4A9AD;" d="M149.37,273.871l-2.361-8.992H131.42l-2.429,8.992h-14.243l15.654-48.176h17.296l15.85,48.176
			H149.37z M144.317,254.246l-2.068-7.876c-0.48-1.75-1.066-4.015-1.756-6.793c-0.688-2.778-1.143-4.769-1.361-5.973
			c-0.197,1.116-0.585,2.954-1.165,5.513c-0.58,2.56-1.865,7.603-3.856,15.129L144.317,254.246L144.317,254.246z"/>
		<path style="fill:#A4A9AD;" d="M168.733,273.871v-47.979h13.028v47.979H168.733z"/>
	</g>
	<g>
		<path style="fill:#FB9200;" d="M155.365,172.085l-6.664-21.877h-33.507l-6.664,21.877H87.533l32.439-92.287h23.826l32.564,92.287
			H155.365z M144.049,133.863c-6.161-19.823-9.629-31.034-10.404-33.633c-0.776-2.598-1.331-4.652-1.666-6.161
			c-1.383,5.365-5.344,18.63-11.882,39.794H144.049z"/>
		<path style="fill:#FB9200;" d="M185.604,83.633c0-6.245,3.479-9.367,10.436-9.367c6.956,0,10.436,3.123,10.436,9.367
			c0,2.976-0.87,5.291-2.609,6.946c-1.74,1.656-4.349,2.483-7.827,2.483C189.082,93.063,185.604,89.92,185.604,83.633z
			 M205.595,172.085h-19.174v-70.284h19.174V172.085z"/>
	</g>
	<polygon style="fill:#D1D3D3;" points="219.821,50.525 270.346,50.525 219.821,0 	"/>
</g>
</svg>