<?xml version="1.0" encoding="iso-8859-1"?>
<!-- Uploaded to: SVG Repo, www.svgrepo.com, Generator: SVG Repo Mixer Tools -->
<svg height="800px" width="800px" version="1.1" id="Layer_1" xmlns="http://www.w3.org/2000/svg" xmlns:xlink="http://www.w3.org/1999/xlink" 
	 viewBox="0 0 303.188 303.188" xml:space="preserve">
<g>
	<polygon style="fill:#E8E8E8;" points="219.821,0 32.842,0 32.842,303.188 270.346,303.188 270.346,50.525 	"/>
	<g>
		<circle style="fill:#38A3FF;" cx="150.128" cy="122.142" r="59.225"/>
		<path style="fill:#FFFFFF;" d="M141.784,150.08c-5.398,3.493-9.814,1.091-9.814-5.339V99.544c0-6.429,4.416-8.832,9.814-5.341
			l33.362,21.588c5.399,3.493,5.399,9.21,0,12.699L141.784,150.08z"/>
	</g>
	<g>
		<path style="fill:#A4A9AD;" d="M126.054,273.871l-2.363-8.992h-15.588l-2.429,8.992H91.432l15.654-48.176h17.295l15.851,48.176
			H126.054z M121,254.246l-2.068-7.876c-0.481-1.751-1.066-4.015-1.755-6.794c-0.689-2.777-1.144-4.768-1.362-5.973
			c-0.197,1.116-0.586,2.954-1.165,5.514c-0.58,2.561-1.865,7.604-3.856,15.129L121,254.246L121,254.246z"/>
		<path style="fill:#A4A9AD;" d="M172.359,225.892h14.506l-15.72,47.979h-15.26l-15.654-47.979h14.571l6.53,24.317
			c1.356,5.404,2.101,9.168,2.231,11.29c0.153-1.531,0.46-3.446,0.919-5.743c0.46-2.297,0.864-4.102,1.215-5.415L172.359,225.892z"
			/>
		<path style="fill:#A4A9AD;" d="M192.051,273.871v-47.979h13.028v47.979H192.051z"/>
	</g>
	<polygon style="fill:#38A3FF;" points="227.64,25.263 32.842,25.263 32.842,0 219.821,0 	"/>
	<polygon style="fill:#D1D3D3;" points="219.821,50.525 270.346,50.525 219.821,0 	"/>
</g>
</svg>