<?xml version="1.0" encoding="iso-8859-1"?>
<!-- Uploaded to: SVG Repo, www.svgrepo.com, Generator: SVG Repo Mixer Tools -->
<svg height="800px" width="800px" version="1.1" id="Layer_1" xmlns="http://www.w3.org/2000/svg" xmlns:xlink="http://www.w3.org/1999/xlink" 
	 viewBox="0 0 303.188 303.188" xml:space="preserve">
<g>
	<g>
		<polygon style="fill:#E8E8E8;" points="219.821,0 32.842,0 32.842,303.188 270.346,303.188 270.346,50.525 		"/>
	</g>
	<g>
		<path style="fill:#9AE07A;" d="M186.482,155.377l-0.207,30.793c-0.025,3.781-2.736,5.347-6.024,3.477l-26.77-15.217
			L186.482,155.377z"/>
		<path style="fill:#9AE07A;" d="M126.829,50.923h-8.245l49.889,86.412c1.335,2.311,0.543,5.268-1.77,6.603
			c-2.312,1.335-5.268,0.542-6.603-1.771L110,55.391v44.861l41.695,72.218l33.982-19.618L126.829,50.923z"/>
	</g>
	<polygon style="fill:#9AE07A;" points="227.639,25.263 32.842,25.263 32.842,0 219.821,0 	"/>
	<g>
		<path style="fill:#A4A9AD;" d="M108.185,235.836c-3.085,0-5.492,1.264-7.22,3.79c-1.728,2.526-2.593,6.011-2.593,10.452
			c0,9.233,3.512,13.85,10.535,13.85c2.122,0,4.179-0.296,6.169-0.887c1.991-0.59,3.993-1.301,6.006-2.133v10.961
			c-4.004,1.772-8.533,2.658-13.587,2.658c-7.242,0-12.794-2.1-16.655-6.301c-3.862-4.201-5.792-10.272-5.792-18.214
			c0-4.966,0.935-9.331,2.806-13.095c1.871-3.762,4.562-6.656,8.073-8.68c3.512-2.023,7.641-3.035,12.389-3.035
			c5.185,0,10.141,1.127,14.866,3.38l-3.971,10.206c-1.772-0.831-3.545-1.531-5.316-2.1
			C112.123,236.12,110.219,235.836,108.185,235.836z"/>
		<path style="fill:#A4A9AD;" d="M171.162,248.864c0,8.007-2.205,14.177-6.613,18.509s-10.605,6.498-18.591,6.498h-15.523v-47.979
			h16.606c7.701,0,13.646,1.97,17.836,5.907C169.066,235.737,171.162,241.426,171.162,248.864z M157.707,249.324
			c0-4.398-0.87-7.658-2.609-9.78s-4.381-3.183-7.926-3.183h-3.773v26.877h2.888c3.938,0,6.826-1.142,8.664-3.43
			C156.788,257.523,157.707,254.027,157.707,249.324z"/>
		<path style="fill:#A4A9AD;" d="M192.723,256.412v17.459H179.76v-47.979h15.72c13.039,0,19.559,4.725,19.559,14.177
			c0,5.559-2.713,9.857-8.139,12.898l13.98,20.904h-14.702l-10.174-17.459H192.723z M192.723,246.666h2.428
			c4.529,0,6.794-2.002,6.794-6.006c0-3.304-2.221-4.956-6.662-4.956h-2.56V246.666z"/>
	</g>
	<polygon style="fill:#D1D3D3;" points="219.821,50.525 270.346,50.525 219.821,0 	"/>
</g>
</svg>