<?xml version="1.0" encoding="iso-8859-1"?>
<!-- Uploaded to: SVG Repo, www.svgrepo.com, Generator: SVG Repo Mixer Tools -->
<svg height="800px" width="800px" version="1.1" id="Layer_1" xmlns="http://www.w3.org/2000/svg" xmlns:xlink="http://www.w3.org/1999/xlink" 
	 viewBox="0 0 303.188 303.188" xml:space="preserve">
<g>
	<polygon style="fill:#E4E4E4;" points="219.821,0 32.842,0 32.842,303.188 270.346,303.188 270.346,50.525 	"/>
	<polygon style="fill:#004A94;" points="227.64,25.263 32.842,25.263 32.842,0 219.821,0 	"/>
	<g>
		<path style="fill:#004A94;" d="M100.128,122.335c3.615,0,6.452-0.699,8.511-2.098c2.058-1.398,3.088-3.372,3.088-5.918v-11.976
			c0-4.37,0.77-7.639,2.309-9.808c1.541-2.169,4.048-3.748,7.521-4.739c3.474-0.99,8.275-1.485,14.406-1.485v13.156
			c-2.798,0.094-4.692,0.307-5.683,0.636c-0.989,0.331-1.783,0.841-2.381,1.532c-0.596,0.692-0.895,1.636-0.895,2.83v12.778
			c0,3.553-0.888,6.28-2.665,8.181c-1.776,1.902-4.66,3.135-8.651,3.701v0.566c4.022,0.628,6.914,1.871,8.675,3.725
			c1.759,1.855,2.641,4.479,2.641,7.874v13.014c0,1.226,0.33,2.184,0.991,2.876c0.659,0.691,1.539,1.203,2.639,1.533
			s2.876,0.542,5.329,0.636v13.108c-6.193,0-11.019-0.503-14.476-1.508c-3.459-1.007-5.949-2.602-7.473-4.786
			c-1.525-2.185-2.287-5.493-2.287-9.926v-11.693c0-2.515-1.054-4.479-3.16-5.894s-4.919-2.123-8.44-2.123v-14.192H100.128z"/>
		<path style="fill:#004A94;" d="M203.06,136.527c-3.489,0-6.287,0.708-8.393,2.123c-2.106,1.415-3.159,3.379-3.159,5.894v11.693
			c0,4.401-0.771,7.701-2.312,9.902c-1.54,2.2-4.039,3.803-7.496,4.81c-3.458,1.005-8.268,1.508-14.429,1.508v-13.108
			c3.396-0.127,5.737-0.589,7.026-1.392c1.287-0.801,1.933-2.019,1.933-3.654V141.29c0-3.395,0.881-6.019,2.641-7.874
			c1.761-1.854,4.651-3.096,8.676-3.725v-0.566c-3.992-0.565-6.877-1.799-8.651-3.701c-1.776-1.901-2.665-4.628-2.665-8.181v-12.778
			c0-1.225-0.307-2.176-0.918-2.852c-0.613-0.676-1.4-1.179-2.359-1.509c-0.958-0.33-2.853-0.542-5.682-0.636V86.311
			c6.161,0,10.971,0.495,14.429,1.485c3.457,0.991,5.956,2.57,7.496,4.739c1.541,2.169,2.312,5.438,2.312,9.808v11.976
			c0,2.546,1.021,4.519,3.064,5.918s4.873,2.098,8.487,2.098V136.527z"/>
	</g>
	<g>
		<g>
			<path style="fill:#A4A9AD;" d="M116.799,235.835c-3.085,0-5.492,1.264-7.22,3.79c-1.729,2.527-2.593,6.011-2.593,10.452
				c0,9.233,3.512,13.849,10.535,13.849c2.122,0,4.179-0.295,6.17-0.886c1.991-0.591,3.993-1.302,6.006-2.133v10.961
				c-4.004,1.772-8.533,2.658-13.586,2.658c-7.242,0-12.794-2.1-16.655-6.301c-3.862-4.201-5.793-10.272-5.793-18.214
				c0-4.966,0.935-9.331,2.806-13.094s4.562-6.656,8.073-8.68c3.512-2.023,7.641-3.036,12.389-3.036
				c5.185,0,10.141,1.127,14.866,3.38l-3.971,10.206c-1.772-0.831-3.544-1.531-5.316-2.1
				C120.737,236.12,118.834,235.835,116.799,235.835z"/>
			<path style="fill:#A4A9AD;" d="M170.423,259.3c0,2.976-0.754,5.617-2.264,7.925c-1.51,2.309-3.688,4.102-6.531,5.382
				c-2.844,1.28-6.18,1.92-10.01,1.92c-3.193,0-5.873-0.225-8.039-0.673s-4.42-1.23-6.761-2.346v-11.552
				c2.472,1.269,5.042,2.259,7.712,2.97c2.67,0.711,5.119,1.067,7.352,1.067c1.924,0,3.336-0.333,4.232-1.001
				c0.898-0.667,1.346-1.526,1.346-2.576c0-0.656-0.18-1.231-0.541-1.723c-0.361-0.492-0.941-0.99-1.738-1.493
				c-0.801-0.503-2.928-1.531-6.385-3.085c-3.129-1.422-5.475-2.8-7.039-4.135c-1.564-1.334-2.723-2.866-3.478-4.595
				c-0.755-1.728-1.132-3.774-1.132-6.137c0-4.419,1.608-7.865,4.823-10.337c3.217-2.472,7.637-3.708,13.26-3.708
				c4.965,0,10.031,1.148,15.193,3.446l-3.971,10.009c-4.484-2.056-8.357-3.085-11.617-3.085c-1.686,0-2.91,0.295-3.676,0.886
				c-0.766,0.591-1.148,1.324-1.148,2.199c0,0.941,0.486,1.784,1.461,2.527c0.973,0.744,3.615,2.101,7.926,4.07
				c4.135,1.859,7.006,3.856,8.613,5.989C169.62,253.376,170.423,256.063,170.423,259.3z"/>
			<path style="fill:#A4A9AD;" d="M209.214,259.3c0,2.976-0.755,5.617-2.265,7.925c-1.509,2.309-3.687,4.102-6.53,5.382
				c-2.845,1.28-6.181,1.92-10.01,1.92c-3.194,0-5.874-0.225-8.04-0.673s-4.42-1.23-6.761-2.346v-11.552
				c2.473,1.269,5.043,2.259,7.713,2.97c2.669,0.711,5.119,1.067,7.351,1.067c1.925,0,3.336-0.333,4.233-1.001
				c0.898-0.667,1.346-1.526,1.346-2.576c0-0.656-0.181-1.231-0.541-1.723c-0.361-0.492-0.941-0.99-1.739-1.493
				c-0.8-0.503-2.927-1.531-6.384-3.085c-3.129-1.422-5.475-2.8-7.039-4.135c-1.564-1.334-2.724-2.866-3.479-4.595
				c-0.755-1.728-1.132-3.774-1.132-6.137c0-4.419,1.607-7.865,4.823-10.337c3.217-2.472,7.636-3.708,13.259-3.708
				c4.966,0,10.031,1.148,15.194,3.446l-3.971,10.009c-4.485-2.056-8.357-3.085-11.617-3.085c-1.686,0-2.91,0.295-3.676,0.886
				c-0.767,0.591-1.148,1.324-1.148,2.199c0,0.941,0.486,1.784,1.46,2.527c0.974,0.744,3.615,2.101,7.926,4.07
				c4.135,1.859,7.007,3.856,8.614,5.989C208.41,253.376,209.214,256.063,209.214,259.3z"/>
		</g>
	</g>
	<polygon style="fill:#D1D3D3;" points="219.821,50.525 270.346,50.525 219.821,0 	"/>
</g>
</svg>