<?xml version="1.0" encoding="iso-8859-1"?>
<!-- Uploaded to: SVG Repo, www.svgrepo.com, Generator: SVG Repo Mixer Tools -->
<svg height="800px" width="800px" version="1.1" id="Layer_1" xmlns="http://www.w3.org/2000/svg" xmlns:xlink="http://www.w3.org/1999/xlink" 
	 viewBox="0 0 303.188 303.188" xml:space="preserve">
<g>
	<polygon style="fill:#E4E4E4;" points="219.821,0 32.842,0 32.842,303.188 270.346,303.188 270.346,50.525 	"/>
	<polygon style="fill:#A4A9AD;" points="227.64,25.263 32.842,25.263 32.842,0 219.821,0 	"/>
	<g>
		<path style="fill:#A4A9AD;" d="M171.767,99.724c-0.465-1.391-1.933-2.023-3.265-1.402l-5.454,2.543
			c-2.544-5.456-6.273-10.248-10.866-14.033l3.832-4.647c0.934-1.133,0.69-2.713-0.541-3.512l-14.669-7.34
			c-1.376-0.507-2.789,0.242-3.136,1.671l-1.427,5.846c-3.055-0.745-6.243-1.149-9.528-1.149c-3.059,0-6.034,0.353-8.896,1.004
			l-1.332-5.88c-0.325-1.433-1.724-2.205-3.109-1.72l-14.779,7.112c-1.245,0.779-1.514,2.354-0.599,3.503l3.757,4.712
			c-4.657,3.713-8.473,8.437-11.103,13.846l-5.412-2.634c-1.32-0.642-2.799-0.034-3.286,1.351l-3.694,15.981
			c-0.17,1.457,0.891,2.652,2.359,2.657l6.021,0.016c0,0.044-0.004,0.087-0.004,0.13c0,6.154,1.392,11.981,3.87,17.192l-5.44,2.576
			c-1.326,0.629-1.778,2.162-1.002,3.409l10.159,12.877c1.03,1.045,2.627,0.965,3.549-0.18l3.779-4.688
			c4.586,3.705,10.005,6.414,15.934,7.811l-1.394,5.863c-0.339,1.429,0.576,2.74,2.034,2.914l16.401,0.127
			c1.459-0.151,2.396-1.447,2.08-2.883l-1.295-5.876c5.957-1.303,11.415-3.93,16.056-7.558l3.707,4.76
			c0.903,1.158,2.499,1.265,3.545,0.236l10.358-12.719c0.794-1.233,0.37-2.774-0.948-3.426l-5.395-2.664
			c2.584-5.211,4.064-11.063,4.143-17.256l6.033,0.084c1.469,0.02,2.55-1.158,2.401-2.619L171.767,99.724z M126.714,133.082
			c-8.453,0-15.305-6.853-15.305-15.305c0-8.453,6.853-15.306,15.305-15.306c8.453,0,15.306,6.853,15.306,15.306
			C142.02,126.229,135.167,133.082,126.714,133.082z"/>
		<circle style="fill:#D1D3D3;" cx="126.714" cy="91.861" r="2.358"/>
		<circle style="fill:#D1D3D3;" cx="100.799" cy="117.776" r="2.358"/>
		<circle style="fill:#D1D3D3;" cx="126.714" cy="143.692" r="2.358"/>
		<circle style="fill:#D1D3D3;" cx="152.629" cy="117.776" r="2.358"/>
	</g>
	<g>
		<path style="fill:#A4A9AD;" d="M209.114,109.604c-0.798-0.398-1.701-0.038-2.006,0.801l-1.251,3.437
			c-3.438-1.252-7.1-1.708-10.701-1.361l-0.351-3.645c-0.085-0.888-0.869-1.463-1.742-1.276l-9.458,3.15
			c-0.81,0.372-1.095,1.302-0.63,2.065l1.899,3.125c-1.634,0.993-3.178,2.188-4.589,3.601c-1.315,1.315-2.441,2.746-3.393,4.256
			l-3.101-1.955c-0.754-0.476-1.688-0.207-2.074,0.597l-3.296,9.409c-0.201,0.869,0.361,1.663,1.248,1.763l3.641,0.41
			c-0.406,3.599-0.017,7.269,1.178,10.723l-3.457,1.195c-0.844,0.29-1.218,1.189-0.833,1.993l5.281,8.455
			c0.554,0.7,1.523,0.759,2.156,0.128l2.596-2.58c0.019,0.019,0.035,0.038,0.054,0.058c2.645,2.645,5.748,4.553,9.053,5.727
			l-1.231,3.444c-0.3,0.84,0.165,1.693,1.034,1.896l9.901,1.169c0.892,0.006,1.544-0.715,1.449-1.603l-0.392-3.641
			c3.564-0.379,7.057-1.544,10.207-3.49l1.92,3.119c0.468,0.76,1.426,0.932,2.126,0.379l7.105-6.995
			c0.562-0.691,0.408-1.651-0.344-2.132l-3.083-1.971c2.001-3.12,3.218-6.594,3.653-10.148l3.64,0.451
			c0.885,0.11,1.617-0.53,1.624-1.422l-1.015-9.918c-0.188-0.872-1.034-1.353-1.879-1.064l-3.463,1.173
			c-1.13-3.35-3.009-6.501-5.637-9.196l2.63-2.558c0.639-0.622,0.598-1.594-0.094-2.157L209.114,109.604z M204.088,143.304
			c-3.633,3.633-9.522,3.633-13.155,0s-3.634-9.523,0-13.156s9.523-3.633,13.157,0C207.722,133.78,207.721,139.671,204.088,143.304z
			"/>
		<circle style="fill:#D1D3D3;" cx="186.373" cy="125.587" r="1.433"/>
		<circle style="fill:#D1D3D3;" cx="186.372" cy="147.863" r="1.433"/>
		<circle style="fill:#D1D3D3;" cx="208.649" cy="147.864" r="1.433"/>
		<circle style="fill:#D1D3D3;" cx="208.648" cy="125.587" r="1.434"/>
	</g>
	<g>
		<g>
			<path style="fill:#A4A9AD;" d="M134.313,240.585c0,7.744-2.133,13.711-6.396,17.9c-4.264,4.19-10.257,6.284-17.979,6.284H94.925
				v-46.401h16.06c7.447,0,13.197,1.904,17.25,5.713C132.286,227.89,134.313,233.391,134.313,240.585z M121.299,241.029
				c0-4.253-0.841-7.405-2.522-9.458c-1.683-2.052-4.237-3.079-7.665-3.079h-3.65v25.994h2.793c3.809,0,6.602-1.105,8.379-3.316
				C120.41,248.959,121.299,245.578,121.299,241.029z"/>
			<path style="fill:#A4A9AD;" d="M142.627,264.77v-46.401h12.536v36.276h17.869v10.125H142.627z"/>
			<path style="fill:#A4A9AD;" d="M180.459,264.77v-46.401h12.536v36.276h17.869v10.125H180.459z"/>
		</g>
	</g>
	<polygon style="fill:#D1D3D3;" points="219.821,50.525 270.346,50.525 219.821,0 	"/>
</g>
</svg>