<?xml version="1.0" encoding="iso-8859-1"?>
<!-- Uploaded to: SVG Repo, www.svgrepo.com, Generator: SVG Repo Mixer Tools -->
<svg height="800px" width="800px" version="1.1" id="Layer_1" xmlns="http://www.w3.org/2000/svg" xmlns:xlink="http://www.w3.org/1999/xlink" 
	 viewBox="0 0 303.188 303.188" xml:space="preserve">
<g>
	<polygon style="fill:#E8E8E8;" points="219.821,0 32.842,0 32.842,303.188 270.346,303.188 270.346,50.525 	"/>
	<polygon style="fill:#9AE07A;" points="227.64,25.263 32.842,25.263 32.842,0 219.821,0 	"/>
	<g>
		<path style="fill:#A4A9AD;" d="M117.324,248.864c0,8.007-2.204,14.177-6.613,18.509s-10.605,6.498-18.591,6.498H76.598v-47.979
			h16.606c7.701,0,13.646,1.97,17.837,5.907C115.229,235.737,117.324,241.426,117.324,248.864z M103.869,249.324
			c0-4.398-0.87-7.658-2.609-9.78s-4.381-3.183-7.925-3.183h-3.774v26.877h2.888c3.938,0,6.826-1.142,8.663-3.43
			C102.95,257.523,103.869,254.027,103.869,249.324z"/>
		<path style="fill:#A4A9AD;" d="M177.741,273.871h-15.325l-4.595-20.904c-0.219-0.875-0.564-2.615-1.034-5.219
			c-0.471-2.604-0.815-4.779-1.033-6.53c-0.176,1.423-0.46,3.189-0.854,5.3s-0.782,4.053-1.165,5.825
			c-0.383,1.773-1.975,8.948-4.775,21.528h-15.325l-11.88-47.979h12.503l5.217,24.056c1.182,5.316,1.991,9.55,2.429,12.7
			c0.284-2.231,0.793-5.262,1.526-9.091c0.732-3.828,1.416-7,2.051-9.517l4.233-18.148h12.012l4.103,18.148
			c0.699,2.909,1.411,6.269,2.133,10.075c0.722,3.807,1.203,6.65,1.443,8.532c0.284-2.429,1.061-6.64,2.33-12.635l5.317-24.121
			h12.503L177.741,273.871z"/>
		<path style="fill:#A4A9AD;" d="M216.926,273.871h-12.963v-37.379h-11.716v-10.6h36.361v10.6h-11.683L216.926,273.871
			L216.926,273.871z"/>
	</g>
	<g>
		<path style="fill:#9AE07A;" d="M139.417,133.89c0,12.339-3.512,21.79-10.536,28.352c-7.024,6.563-17.168,9.844-30.429,9.844
			H77.227V97.129h23.533c12.236,0,21.738,3.23,28.506,9.69C136.033,113.279,139.417,122.303,139.417,133.89z M122.908,134.3
			c0-16.099-7.11-24.148-21.328-24.148h-8.46v48.809h6.819C115.251,158.961,122.908,150.74,122.908,134.3z"/>
		<path style="fill:#9AE07A;" d="M200.837,172.086l-4.409-20.047l-5.947-25.327h-0.359l-10.459,45.374h-16.816l-16.304-57.32h15.586
			l6.614,25.379c1.059,4.547,2.136,10.818,3.23,18.816h0.308c0.136-2.598,0.734-6.717,1.794-12.357l0.82-4.358l7.075-27.48h17.227
			l6.716,27.48c0.136,0.753,0.35,1.863,0.641,3.333c0.29,1.47,0.572,3.034,0.846,4.69c0.273,1.659,0.52,3.281,0.744,4.871
			c0.222,1.59,0.35,2.863,0.384,3.82h0.308c0.308-2.461,0.854-5.836,1.641-10.127c0.786-4.288,1.35-7.185,1.692-8.689l6.87-25.379
			h15.33l-16.509,57.32L200.837,172.086L200.837,172.086z"/>
	</g>
	<polygon style="fill:#D1D3D3;" points="219.821,50.525 270.346,50.525 219.821,0 	"/>
</g>
</svg>