<?xml version="1.0" encoding="iso-8859-1"?>
<!-- Uploaded to: SVG Repo, www.svgrepo.com, Generator: SVG Repo Mixer Tools -->
<svg version="1.1" id="Layer_1" xmlns="http://www.w3.org/2000/svg" xmlns:xlink="http://www.w3.org/1999/xlink" 
	 viewBox="0 0 303.188 303.188" xml:space="preserve">
<g>
	<polygon style="fill:#E8E8E8;" points="219.821,0 32.842,0 32.842,303.188 270.346,303.188 270.346,50.525 	"/>
	<polygon style="fill:#FB9200;" points="227.64,25.263 32.842,25.263 32.842,0 219.821,0 	"/>
	<g>
		<path style="fill:#A4A9AD;" d="M125.447,273.871H96.961v-47.979h28.486v10.403h-15.523v7.548h14.374v10.403h-14.374v9.058h15.523
			V273.871z"/>
		<path style="fill:#A4A9AD;" d="M168.667,241.152c0,5.361-1.58,9.501-4.742,12.421c-3.162,2.921-7.652,4.381-13.471,4.381h-3.643
			v15.917h-12.964v-47.979h16.606c6.059,0,10.609,1.324,13.652,3.971C167.145,232.51,168.667,236.273,168.667,241.152z
			 M146.812,247.387h2.361c1.947,0,3.496-0.546,4.645-1.641c1.148-1.094,1.723-2.604,1.723-4.529c0-3.238-1.795-4.857-5.383-4.857
			h-3.346L146.812,247.387L146.812,247.387z"/>
		<path style="fill:#A4A9AD;" d="M207.688,259.3c0,2.976-0.755,5.617-2.265,7.925c-1.509,2.309-3.687,4.102-6.53,5.382
			c-2.845,1.28-6.181,1.92-10.01,1.92c-3.194,0-5.874-0.225-8.04-0.673s-4.42-1.23-6.761-2.346v-11.552
			c2.473,1.269,5.043,2.259,7.713,2.97c2.669,0.711,5.119,1.067,7.35,1.067c1.925,0,3.336-0.333,4.233-1.001
			c0.898-0.667,1.346-1.526,1.346-2.576c0-0.656-0.181-1.231-0.541-1.723c-0.361-0.492-0.941-0.99-1.739-1.493
			c-0.8-0.503-2.927-1.531-6.384-3.085c-3.129-1.422-5.475-2.8-7.039-4.135c-1.564-1.334-2.724-2.866-3.479-4.595
			c-0.755-1.728-1.132-3.774-1.132-6.137c0-4.419,1.607-7.865,4.823-10.337c3.217-2.472,7.636-3.708,13.259-3.708
			c4.966,0,10.031,1.148,15.194,3.446l-3.971,10.009c-4.485-2.056-8.357-3.085-11.617-3.085c-1.686,0-2.91,0.295-3.676,0.886
			c-0.767,0.591-1.148,1.324-1.148,2.199c0,0.941,0.486,1.784,1.46,2.527c0.974,0.744,3.615,2.101,7.926,4.07
			c4.135,1.859,7.007,3.856,8.614,5.989C206.884,253.376,207.688,256.063,207.688,259.3z"/>
	</g>
	<polygon style="fill:#D1D3D3;" points="219.821,50.525 270.346,50.525 219.821,0 	"/>
	<g>
		<path style="fill:#A4A9AD;" d="M177.292,175.796l-2.726-2.725c19.775-19.775,19.775-51.952,0-71.727
			c-9.58-9.58-22.313-14.855-35.863-14.855c-13.546,0-26.282,5.276-35.862,14.856l-2.726-2.726
			c10.308-10.308,24.011-15.985,38.588-15.985s28.281,5.677,38.589,15.984C198.571,119.896,198.571,154.518,177.292,175.796z"/>
		<g>
			
				<rect x="135.438" y="98.751" transform="matrix(-0.7071 -0.7071 0.7071 -0.7071 229.6362 295.0775)" style="fill:#333E48;" width="80.986" height="2.458"/>
			
				<rect x="168.788" y="92.851" transform="matrix(-0.7072 -0.7071 0.7071 -0.7072 229.6411 295.0988)" style="fill:#333E48;" width="14.287" height="14.287"/>
			<circle style="fill:#333E48;" cx="147.297" cy="71.349" r="4.439"/>
			<circle style="fill:#333E48;" cx="204.563" cy="128.615" r="4.438"/>
		</g>
		
			<rect x="168.788" y="92.851" transform="matrix(-0.7072 -0.7071 0.7071 -0.7072 229.6411 295.0988)" style="fill:#333E48;" width="14.287" height="14.287"/>
		
			<rect x="94.336" y="92.838" transform="matrix(-0.7071 -0.7071 0.7071 -0.7071 102.5369 242.4331)" style="fill:#333E48;" width="14.284" height="14.286"/>
		
			<rect x="168.784" y="167.305" transform="matrix(-0.7072 -0.7071 0.7071 -0.7072 176.9906 422.2022)" style="fill:#333E48;" width="14.287" height="14.287"/>
	</g>
</g>
</svg>