<?xml version="1.0" encoding="iso-8859-1"?>
<!-- Uploaded to: SVG Repo, www.svgrepo.com, Generator: SVG Repo Mixer Tools -->
<svg version="1.1" id="Layer_1" xmlns="http://www.w3.org/2000/svg" xmlns:xlink="http://www.w3.org/1999/xlink" 
	 viewBox="0 0 303.188 303.188" xml:space="preserve">
<g>
	<polygon style="fill:#E8E8E8;" points="219.821,0 32.842,0 32.842,303.188 270.346,303.188 270.346,50.525 	"/>
	<g>
		<rect x="90.902" y="61.704" style="fill:#38A3FF;" width="119.89" height="119.89"/>
		<polygon style="fill:#007934;" points="184.795,122.678 160.983,162.858 122.243,97.484 90.902,150.372 90.902,181.593 
			210.792,181.593 210.792,166.549 		"/>
		<g>
			<path style="fill:#FFFFFF;" d="M187.79,108.071c-5.439-15.665-20.24-26.19-36.832-26.19c-16.601,0-30.803,10.436-36.412,25.089
				l-0.255-0.542c-1.017-2.161-3.592-3.087-5.753-2.072c-2.16,1.017-3.088,3.592-2.072,5.753l5.924,12.591
				c0.584,1.242,1.723,2.132,3.068,2.4c0.281,0.056,0.563,0.083,0.844,0.083c1.066,0,2.106-0.394,2.909-1.125l10.295-9.362
				c1.767-1.606,1.896-4.341,0.289-6.107c-1.606-1.767-4.341-1.896-6.107-0.29l-0.558,0.508
				c4.671-10.744,15.384-18.278,27.827-18.278c12.912,0,24.431,8.189,28.663,20.379c0.784,2.257,3.249,3.449,5.503,2.667
				C187.379,112.791,188.573,110.327,187.79,108.071z"/>
			<path style="fill:#FFFFFF;" d="M195.45,131.611l-5.924-12.592c-0.584-1.241-1.723-2.132-3.068-2.4
				c-1.347-0.269-2.739,0.118-3.753,1.042l-10.295,9.362c-1.767,1.606-1.896,4.341-0.29,6.107c1.606,1.767,4.341,1.896,6.107,0.29
				l0.558-0.508c-4.671,10.744-15.384,18.278-27.827,18.278c-12.912,0-24.431-8.189-28.663-20.379
				c-0.783-2.256-3.248-3.449-5.502-2.667c-2.256,0.783-3.45,3.247-2.667,5.503c5.439,15.665,20.24,26.19,36.831,26.19
				c16.601,0,30.803-10.436,36.412-25.089l0.255,0.542c0.737,1.566,2.292,2.484,3.916,2.484c0.617,0,1.243-0.132,1.838-0.412
				C195.538,136.348,196.466,133.772,195.45,131.611z"/>
		</g>
	</g>
	<polygon style="fill:#38A3FF;" points="227.64,25.263 32.842,25.263 32.842,0 219.821,0 	"/>
	<g>
		<path style="fill:#A4A9AD;" d="M120.606,245.779h20.708v25.86c-5.624,1.925-11.804,2.888-18.542,2.888
			c-7.396,0-13.111-2.144-17.147-6.432c-4.037-4.288-6.055-10.403-6.055-18.345c0-7.745,2.21-13.772,6.629-18.083
			c4.419-4.309,10.611-6.465,18.575-6.465c3.02,0,5.869,0.285,8.549,0.853c2.68,0.569,5.015,1.292,7.007,2.166l-4.102,10.174
			c-3.457-1.707-7.253-2.56-11.388-2.56c-3.785,0-6.711,1.231-8.779,3.692c-2.067,2.461-3.101,5.979-3.101,10.551
			c0,4.485,0.935,7.904,2.806,10.256s4.567,3.528,8.09,3.528c1.925,0,3.697-0.186,5.316-0.558v-7.515h-8.565L120.606,245.779
			L120.606,245.779z"/>
		<path style="fill:#A4A9AD;" d="M151.094,273.871v-47.979h13.028v47.979H151.094z"/>
		<path style="fill:#A4A9AD;" d="M187.259,273.871h-12.766v-47.979h28.355v10.403h-15.589v9.156h14.374v10.403h-14.374
			L187.259,273.871L187.259,273.871z"/>
	</g>
	<polygon style="fill:#D1D3D3;" points="219.821,50.525 270.346,50.525 219.821,0 	"/>
</g>
</svg>