<?xml version="1.0" encoding="iso-8859-1"?>
<!-- Uploaded to: SVG Repo, www.svgrepo.com, Generator: SVG Repo Mixer Tools -->
<svg height="800px" width="800px" version="1.1" id="Layer_1" xmlns="http://www.w3.org/2000/svg" xmlns:xlink="http://www.w3.org/1999/xlink" 
	 viewBox="0 0 303.188 303.188" xml:space="preserve">
<g>
	<polygon style="fill:#E8E8E8;" points="219.821,0 32.842,0 32.842,303.188 270.346,303.188 270.346,50.525 	"/>
	<g>
		<path style="fill:#004A94;" d="M206.841,160.467c0,10.853-8.88,19.732-19.732,19.732h-71.03c-10.853,0-19.732-8.88-19.732-19.732
			v-71.03c0-10.853,8.88-19.732,19.732-19.732h71.03c10.853,0,19.732,8.88,19.732,19.732V160.467z"/>
		<polygon style="fill:#FFFFFF;" points="168.026,105.527 168.026,95.073 135.159,95.073 135.159,105.527 146.366,105.527 
			146.366,144.375 135.159,144.375 135.159,154.829 168.026,154.829 168.026,144.375 156.819,144.375 156.819,105.527 		"/>
	</g>
	<g>
		<path style="fill:#A4A9AD;" d="M95.747,273.871v-47.979h13.029v47.979H95.747z"/>
		<path style="fill:#A4A9AD;" d="M140.511,235.836c-3.086,0-5.492,1.264-7.221,3.79c-1.729,2.526-2.592,6.011-2.592,10.452
			c0,9.233,3.512,13.85,10.534,13.85c2.122,0,4.179-0.296,6.17-0.887c1.99-0.59,3.992-1.301,6.005-2.133v10.961
			c-4.003,1.772-8.532,2.658-13.586,2.658c-7.242,0-12.794-2.1-16.654-6.301c-3.862-4.201-5.793-10.272-5.793-18.214
			c0-4.966,0.936-9.331,2.806-13.095c1.87-3.762,4.562-6.656,8.073-8.68c3.512-2.023,7.641-3.035,12.389-3.035
			c5.186,0,10.141,1.127,14.866,3.38l-3.971,10.206c-1.772-0.831-3.544-1.531-5.316-2.1
			C144.448,236.12,142.545,235.836,140.511,235.836z"/>
		<path style="fill:#A4A9AD;" d="M207.655,249.816c0,8.072-1.98,14.209-5.94,18.41s-9.758,6.301-17.394,6.301
			c-7.526,0-13.297-2.111-17.312-6.334c-4.015-4.222-6.021-10.37-6.021-18.443c0-7.985,1.996-14.084,5.989-18.295
			c3.992-4.212,9.796-6.318,17.409-6.318c7.636,0,13.423,2.09,17.361,6.268C205.686,235.584,207.655,241.721,207.655,249.816z
			 M174.641,249.816c0,9.275,3.227,13.914,9.681,13.914c3.282,0,5.716-1.127,7.302-3.381c1.586-2.252,2.38-5.764,2.38-10.533
			c0-4.792-0.805-8.33-2.412-10.617c-1.608-2.285-4.01-3.43-7.204-3.43C177.89,235.77,174.641,240.452,174.641,249.816z"/>
	</g>
	<polygon style="fill:#004A94;" points="227.64,25.263 32.842,25.263 32.842,0 219.821,0 	"/>
	<polygon style="fill:#D1D3D3;" points="219.821,50.525 270.346,50.525 219.821,0 	"/>
</g>
</svg>