<?xml version="1.0" encoding="iso-8859-1"?>
<!-- Uploaded to: SVG Repo, www.svgrepo.com, Generator: SVG Repo Mixer Tools -->
<svg height="800px" width="800px" version="1.1" id="Layer_1" xmlns="http://www.w3.org/2000/svg" xmlns:xlink="http://www.w3.org/1999/xlink" 
	 viewBox="0 0 303.188 303.188" xml:space="preserve">
<g>
	<polygon style="fill:#E8E8E8;" points="219.821,0 32.842,0 32.842,303.188 270.346,303.188 270.346,50.525 	"/>
	<g>
		<path style="fill:#A35EB5;" d="M103.144,172.085v-91.91h19.488v91.91H103.144z"/>
		<path style="fill:#A35EB5;" d="M205.823,133.89c0,12.339-3.512,21.789-10.535,28.352c-7.025,6.563-17.168,9.844-30.43,9.844
			h-21.225V97.129h23.532c12.235,0,21.738,3.23,28.506,9.69C202.439,113.279,205.823,122.303,205.823,133.89z M189.314,134.3
			c0-16.099-7.11-24.148-21.328-24.148h-8.46v48.809h6.819C181.657,158.96,189.314,150.741,189.314,134.3z"/>
	</g>
	<polygon style="fill:#A35EB5;" points="227.64,25.263 32.842,25.263 32.842,0 219.821,0 	"/>
	<g>
		<path style="fill:#A4A9AD;" d="M66.982,273.871v-47.979H80.01v47.979H66.982z"/>
		<path style="fill:#A4A9AD;" d="M136.064,273.871h-17l-17.523-33.802h-0.296c0.415,5.316,0.624,9.375,0.624,12.175v21.627H90.382
			v-47.979h16.934l17.459,33.343h0.197c-0.307-4.835-0.46-8.718-0.46-11.65v-21.692h11.552V273.871z"/>
		<path style="fill:#A4A9AD;" d="M187.161,248.864c0,8.007-2.205,14.177-6.613,18.509s-10.605,6.498-18.591,6.498h-15.523v-47.979
			h16.605c7.701,0,13.646,1.969,17.836,5.907C185.066,235.737,187.161,241.426,187.161,248.864z M173.706,249.324
			c0-4.398-0.87-7.657-2.609-9.78c-1.739-2.122-4.381-3.183-7.926-3.183h-3.773v26.877h2.888c3.938,0,6.826-1.143,8.664-3.43
			C172.787,257.523,173.706,254.028,173.706,249.324z"/>
		<path style="fill:#A4A9AD;" d="M236.485,248.864c0,8.007-2.205,14.177-6.613,18.509s-10.605,6.498-18.591,6.498h-15.522v-47.979
			h16.605c7.701,0,13.646,1.969,17.836,5.907C234.39,235.737,236.485,241.426,236.485,248.864z M223.03,249.324
			c0-4.398-0.87-7.657-2.609-9.78c-1.739-2.122-4.381-3.183-7.926-3.183h-3.773v26.877h2.888c3.938,0,6.826-1.143,8.664-3.43
			C222.111,257.523,223.03,254.028,223.03,249.324z"/>
	</g>
	<polygon style="fill:#D1D3D3;" points="219.821,50.525 270.346,50.525 219.821,0 	"/>
</g>
</svg>