<?xml version="1.0" encoding="iso-8859-1"?>
<!-- Uploaded to: SVG Repo, www.svgrepo.com, Generator: SVG Repo Mixer Tools -->
<svg height="800px" width="800px" version="1.1" id="Layer_1" xmlns="http://www.w3.org/2000/svg" xmlns:xlink="http://www.w3.org/1999/xlink" 
	 viewBox="0 0 303.188 303.188" xml:space="preserve">
<g>
	<polygon style="fill:#E8E8E8;" points="219.821,0 32.842,0 32.842,303.188 270.346,303.188 270.346,50.525 	"/>
	<g>
		<path style="fill:#A4A9AD;" d="M150.303,62.742c-32.807,0-59.4,26.595-59.4,59.4c0,32.807,26.594,59.401,59.4,59.401
			c32.809,0,59.402-26.595,59.402-59.401C209.705,89.337,183.111,62.742,150.303,62.742z M150.303,136.52
			c-7.941,0-14.377-6.437-14.377-14.378c0-7.939,6.436-14.377,14.377-14.377s14.378,6.438,14.378,14.377
			C164.681,130.084,158.245,136.52,150.303,136.52z"/>
		<path style="fill:#FFFFFF;" d="M188.708,76.843l-29.112,34.339c1.62,1.375,2.926,3.103,3.811,5.064l41.063-18.481
			C200.816,89.66,195.402,82.523,188.708,76.843z"/>
		<path style="fill:#333E48;" d="M150.303,102.599c-10.794,0-19.544,8.751-19.544,19.544c0,10.795,8.75,19.545,19.544,19.545
			c10.795,0,19.545-8.75,19.545-19.545C169.848,111.35,161.098,102.599,150.303,102.599z M150.303,135.188
			c-7.204,0-13.044-5.84-13.044-13.045c0-7.203,5.84-13.044,13.044-13.044c7.205,0,13.045,5.841,13.045,13.044
			C163.348,129.348,157.508,135.188,150.303,135.188z"/>
	</g>
	<g>
		<path style="fill:#A4A9AD;" d="M98.159,273.871v-47.979h13.029v47.979H98.159z"/>
		<path style="fill:#A4A9AD;" d="M152.931,259.301c0,2.975-0.754,5.617-2.264,7.925c-1.51,2.309-3.688,4.103-6.531,5.382
			c-2.844,1.28-6.181,1.92-10.009,1.92c-3.195,0-5.874-0.225-8.04-0.673s-4.42-1.23-6.76-2.347v-11.551
			c2.472,1.268,5.042,2.259,7.712,2.969c2.669,0.712,5.12,1.067,7.351,1.067c1.925,0,3.336-0.333,4.234-1.001
			c0.897-0.668,1.345-1.526,1.345-2.576c0-0.656-0.18-1.23-0.541-1.723s-0.941-0.99-1.739-1.494
			c-0.799-0.502-2.926-1.531-6.383-3.084c-3.129-1.422-5.476-2.801-7.04-4.135c-1.564-1.335-2.724-2.867-3.479-4.596
			c-0.755-1.728-1.132-3.773-1.132-6.137c0-4.418,1.608-7.864,4.824-10.337c3.216-2.472,7.635-3.708,13.258-3.708
			c4.965,0,10.032,1.148,15.194,3.445l-3.971,10.01c-4.484-2.057-8.357-3.086-11.617-3.086c-1.685,0-2.91,0.296-3.675,0.887
			c-0.766,0.591-1.148,1.324-1.148,2.199c0,0.94,0.486,1.783,1.46,2.526c0.974,0.744,3.615,2.101,7.926,4.069
			c4.135,1.859,7.006,3.856,8.613,5.989C152.128,253.377,152.931,256.063,152.931,259.301z"/>
		<path style="fill:#A4A9AD;" d="M205.243,249.816c0,8.072-1.98,14.209-5.94,18.41s-9.758,6.301-17.394,6.301
			c-7.526,0-13.297-2.111-17.311-6.334c-4.015-4.222-6.021-10.37-6.021-18.443c0-7.985,1.996-14.084,5.989-18.295
			c3.992-4.212,9.796-6.318,17.409-6.318c7.636,0,13.423,2.09,17.361,6.268C203.273,235.584,205.243,241.721,205.243,249.816z
			 M172.229,249.816c0,9.275,3.227,13.914,9.681,13.914c3.282,0,5.716-1.127,7.302-3.381c1.586-2.252,2.38-5.764,2.38-10.533
			c0-4.792-0.805-8.33-2.412-10.617c-1.608-2.285-4.01-3.43-7.204-3.43C175.478,235.77,172.229,240.452,172.229,249.816z"/>
	</g>
	<polygon style="fill:#333E48;" points="227.64,25.263 32.842,25.263 32.842,0 219.821,0 	"/>
	<polygon style="fill:#D1D3D3;" points="219.821,50.525 270.346,50.525 219.821,0 	"/>
</g>
</svg>