<?xml version="1.0" encoding="iso-8859-1"?>
<!-- Uploaded to: SVG Repo, www.svgrepo.com, Generator: SVG Repo Mixer Tools -->
<svg height="800px" width="800px" version="1.1" id="Layer_1" xmlns="http://www.w3.org/2000/svg" xmlns:xlink="http://www.w3.org/1999/xlink" 
	 viewBox="0 0 303.188 303.188" xml:space="preserve">
<g>
	<polygon style="fill:#E8E8E8;" points="219.821,0 32.842,0 32.842,303.188 270.346,303.188 270.346,50.525 	"/>
	<polygon style="fill:#007934;" points="227.64,25.263 32.842,25.263 32.842,0 219.821,0 	"/>
	<g>
		<path style="fill:#A4A9AD;" d="M121.033,288.935c-2.363,0-4.605-0.23-6.728-0.689V278.17c0.7,0.131,1.444,0.279,2.232,0.443
			s1.641,0.246,2.56,0.246c2.144,0,3.675-0.646,4.594-1.936c0.919-1.292,1.378-3.501,1.378-6.63v-44.402h13.028v43.286
			c0,6.498-1.422,11.416-4.266,14.752C130.987,287.266,126.721,288.935,121.033,288.935z"/>
		<path style="fill:#A4A9AD;" d="M179.842,259.301c0,2.975-0.755,5.617-2.265,7.925c-1.509,2.309-3.686,4.103-6.53,5.382
			c-2.845,1.28-6.181,1.92-10.01,1.92c-3.194,0-5.874-0.225-8.04-0.673s-4.42-1.23-6.761-2.347v-11.551
			c2.473,1.268,5.043,2.259,7.713,2.969c2.669,0.712,5.119,1.067,7.351,1.067c1.925,0,3.336-0.333,4.233-1.001
			s1.346-1.526,1.346-2.576c0-0.656-0.181-1.23-0.541-1.723c-0.361-0.492-0.941-0.99-1.739-1.494
			c-0.8-0.502-2.927-1.531-6.384-3.084c-3.129-1.422-5.475-2.801-7.039-4.135c-1.564-1.335-2.724-2.867-3.479-4.596
			c-0.755-1.728-1.132-3.773-1.132-6.137c0-4.418,1.607-7.864,4.823-10.337c3.217-2.472,7.636-3.708,13.259-3.708
			c4.966,0,10.031,1.148,15.194,3.445l-3.971,10.01c-4.485-2.057-8.357-3.086-11.617-3.086c-1.685,0-2.91,0.296-3.676,0.887
			c-0.767,0.591-1.148,1.324-1.148,2.199c0,0.94,0.486,1.783,1.46,2.526c0.974,0.744,3.615,2.101,7.926,4.069
			c4.135,1.859,7.007,3.856,8.614,5.989C179.038,253.377,179.842,256.063,179.842,259.301z"/>
	</g>
	<g>
		<g>
			<path style="fill:#007934;" d="M98.262,194.385c-4.281,0-8.012-0.449-11.192-1.346V177.26c3.263,0.814,6.238,1.223,8.929,1.223
				c4.159,0,7.135-1.295,8.93-3.883c1.794-2.59,2.691-6.637,2.691-12.141V78.67h18.959v83.666c0,10.438-2.385,18.389-7.156,23.854
				C114.653,191.652,107.599,194.385,98.262,194.385z"/>
			<path style="fill:#007934;" d="M201.866,143.254c0,8.074-2.904,14.434-8.715,19.082c-5.811,4.648-13.894,6.973-24.25,6.973
				c-9.541,0-17.981-1.793-25.32-5.382v-17.614c6.034,2.691,11.141,4.587,15.32,5.688c4.18,1.102,8.002,1.652,11.469,1.652
				c4.158,0,7.348-0.796,9.57-2.386c2.223-1.591,3.334-3.954,3.334-7.095c0-1.752-0.489-3.313-1.469-4.679
				c-0.979-1.366-2.415-2.681-4.311-3.944c-1.896-1.264-5.76-3.281-11.59-6.055c-5.465-2.569-9.563-5.035-12.293-7.4
				c-2.732-2.365-4.914-5.117-6.545-8.257s-2.446-6.81-2.446-11.009c0-7.91,2.681-14.128,8.042-18.654
				c5.361-4.525,12.773-6.788,22.232-6.788c4.649,0,9.082,0.55,13.303,1.651c4.219,1.101,8.633,2.65,13.24,4.648l-6.115,14.738
				c-4.771-1.957-8.716-3.322-11.835-4.098c-3.119-0.773-6.188-1.162-9.204-1.162c-3.589,0-6.341,0.837-8.257,2.508
				c-1.917,1.673-2.874,3.854-2.874,6.545c0,1.672,0.387,3.129,1.162,4.373c0.773,1.244,2.007,2.445,3.699,3.607
				c1.691,1.162,5.697,3.252,12.018,6.27c8.358,3.996,14.088,8.002,17.186,12.018C200.317,132.501,201.866,137.424,201.866,143.254z
				"/>
		</g>
	</g>
	<polygon style="fill:#D1D3D3;" points="219.821,50.525 270.346,50.525 219.821,0 	"/>
</g>
</svg>