<?xml version="1.0" encoding="iso-8859-1"?>
<!-- Uploaded to: SVG Repo, www.svgrepo.com, Generator: SVG Repo Mixer Tools -->
<svg height="800px" width="800px" version="1.1" id="Layer_1" xmlns="http://www.w3.org/2000/svg" xmlns:xlink="http://www.w3.org/1999/xlink" 
	 viewBox="0 0 303.188 303.188" xml:space="preserve">
<g>
	<polygon style="fill:#E8E8E8;" points="219.821,0 32.842,0 32.842,303.188 270.346,303.188 270.346,50.525 	"/>
	<g>
		<path style="fill:#A4A9AD;" d="M99.324,273.871l-9.813-34.557h-0.295c0.459,5.885,0.689,10.458,0.689,13.717v20.84H78.419v-47.979
			h17.262l10.009,34.065h0.263l9.813-34.065h17.295v47.979h-11.913v-21.036c0-1.094,0.017-2.308,0.049-3.643
			c0.033-1.335,0.181-4.605,0.443-9.813h-0.295l-9.681,34.491h-12.34V273.871z"/>
		<path style="fill:#A4A9AD;" d="M173.426,236.295c0,2.976-0.908,5.529-2.724,7.663c-1.816,2.133-4.441,3.681-7.876,4.644v0.197
			c8.008,1.006,12.011,4.791,12.011,11.354c0,4.464-1.767,7.975-5.3,10.534c-3.533,2.56-8.439,3.84-14.719,3.84
			c-2.582,0-4.972-0.186-7.171-0.558c-2.198-0.372-4.577-1.05-7.138-2.034V261.17c2.101,1.071,4.239,1.865,6.416,2.379
			c2.177,0.515,4.185,0.771,6.023,0.771c2.844,0,4.917-0.399,6.219-1.198c1.302-0.799,1.952-2.051,1.952-3.758
			c0-1.313-0.339-2.324-1.017-3.035c-0.679-0.711-1.773-1.247-3.282-1.607c-1.51-0.361-3.479-0.542-5.907-0.542h-2.953v-9.747h3.018
			c6.586,0,9.879-1.684,9.879-5.054c0-1.269-0.487-2.21-1.461-2.822s-2.28-0.919-3.922-0.919c-3.063,0-6.235,1.029-9.517,3.085
			l-5.382-8.664c2.537-1.75,5.136-2.997,7.794-3.741s5.704-1.115,9.14-1.115c4.966,0,8.86,0.984,11.683,2.953
			C172.015,230.125,173.426,232.838,173.426,236.295z"/>
		<path style="fill:#A4A9AD;" d="M223.571,225.892v28.88c0,6.279-1.778,11.141-5.333,14.588c-3.556,3.445-8.681,5.168-15.375,5.168
			c-6.542,0-11.568-1.674-15.08-5.022c-3.511-3.347-5.267-8.16-5.267-14.439v-29.175h13.028v28.157c0,3.393,0.635,5.854,1.903,7.385
			s3.14,2.297,5.612,2.297c2.647,0,4.566-0.76,5.759-2.281c1.192-1.52,1.789-4.008,1.789-7.465v-28.093L223.571,225.892
			L223.571,225.892z"/>
	</g>
	<polygon style="fill:#004A94;" points="227.64,25.263 32.842,25.263 32.842,0 219.821,0 	"/>
	<polygon style="fill:#D1D3D3;" points="219.821,50.525 270.346,50.525 219.821,0 	"/>
	<g>
		<circle style="fill:#004A94;" cx="150.304" cy="122.143" r="59.401"/>
		<path style="fill:#FFFFFF;" d="M130.903,91.176v47.938c-1.681-0.198-3.551-0.154-5.529,0.195
			c-7.212,1.271-13.057,5.968-13.057,10.49s5.845,7.157,13.057,5.886c7.211-1.271,13.056-5.968,13.056-10.49v-38.703l32.749-5.775
			v31.295c-1.68-0.199-3.549-0.153-5.529,0.196c-7.213,1.271-13.057,5.968-13.057,10.49c0,4.523,5.844,7.157,13.057,5.886
			c7.21-1.271,13.056-5.968,13.056-10.49V82.748L130.903,91.176z"/>
	</g>
</g>
</svg>