<?xml version="1.0" encoding="iso-8859-1"?>
<!-- Uploaded to: SVG Repo, www.svgrepo.com, Generator: SVG Repo Mixer Tools -->
<svg height="800px" width="800px" version="1.1" id="Layer_1" xmlns="http://www.w3.org/2000/svg" xmlns:xlink="http://www.w3.org/1999/xlink" 
	 viewBox="0 0 303.188 303.188" xml:space="preserve">
<g>
	<polygon style="fill:#E8E8E8;" points="219.821,0 32.842,0 32.842,303.188 270.346,303.188 270.346,50.525 	"/>
	<g>
		<path style="fill:#333E48;" d="M191.286,97.485h-48.632c-9.581,0-17.421,7.841-17.421,17.422v20.321
			c0,9.58,7.84,17.42,17.421,17.42h3.629c6.533,0,33.389,5.082,33.389-11.976c0-17.053-38.275-0.398-38.306-18.51
			c1.106-7.259,8.506-10.159,15.805-10.159h19.598c9.581,0,17.42,7.84,17.42,17.42v21.047c0,9.582-7.839,17.421-17.42,17.421
			h-48.438c-9.581,0-17.42-7.839-17.42-17.421v-49.84c0-9.583,7.839-17.421,17.42-17.421h55.696c9.581,0,17.42-3.266,17.42-7.258
			c0-3.992-7.839-7.26-17.42-7.26h-70.212c-9.582,0-17.42,7.838-17.42,17.422v78.875c0,9.582,7.839,17.421,17.42,17.421h77.471
			c9.581,0,17.42-7.839,17.42-17.421v-50.081C208.706,105.326,200.867,97.485,191.286,97.485z"/>
		<polygon style="fill:#E8E8E8;" points="160.722,147.75 164.215,140.444 173.425,144.098 		"/>
		<polygon style="fill:#333E48;" points="162.779,125.815 159.285,118.511 150.077,122.163 		"/>
	</g>
	<polygon style="fill:#333E48;" points="227.64,25.263 32.842,25.263 32.842,0 219.821,0 	"/>
	<g>
		<path style="fill:#A4A9AD;" d="M95.747,273.871l-9.813-34.557h-0.295c0.46,5.885,0.689,10.458,0.689,13.717v20.84H74.842v-47.979
			h17.262l10.009,34.065h0.263l9.813-34.065h17.295v47.979h-11.913v-21.036c0-1.094,0.017-2.308,0.049-3.643
			c0.033-1.335,0.181-4.605,0.443-9.813h-0.295l-9.681,34.491h-12.34V273.871z"/>
		<path style="fill:#A4A9AD;" d="M169.259,273.871l-2.363-8.992h-15.588l-2.428,8.992h-14.244l15.654-48.176h17.295l15.852,48.176
			H169.259z M164.204,254.246l-2.066-7.876c-0.482-1.751-1.066-4.015-1.756-6.794c-0.689-2.777-1.145-4.768-1.361-5.973
			c-0.197,1.116-0.586,2.954-1.166,5.514c-0.58,2.561-1.865,7.604-3.855,15.129L164.204,254.246L164.204,254.246z"/>
		<path style="fill:#A4A9AD;" d="M231.842,273.871h-14.998l-9.353-14.998l-9.255,14.998h-14.67l15.917-24.547l-14.965-23.433h14.374
			l8.664,14.834l8.336-14.834h14.8l-15.194,24.449L231.842,273.871z"/>
	</g>
	<polygon style="fill:#D1D3D3;" points="219.821,50.525 270.346,50.525 219.821,0 	"/>
</g>
</svg>