<?xml version="1.0" encoding="iso-8859-1"?>
<!-- Uploaded to: SVG Repo, www.svgrepo.com, Generator: SVG Repo Mixer Tools -->
<svg version="1.1" id="Layer_1" xmlns="http://www.w3.org/2000/svg" xmlns:xlink="http://www.w3.org/1999/xlink" 
	 viewBox="0 0 303.188 303.188" xml:space="preserve">
<g>
	<polygon style="fill:#E4E4E4;" points="219.821,0 32.842,0 32.842,303.188 270.346,303.188 270.346,50.525 	"/>
	<polygon style="fill:#FB9200;" points="227.64,25.263 32.842,25.263 32.842,0 219.821,0 	"/>
	<g>
		<g>
			<path style="fill:#A4A9AD;" d="M100.527,264.77l-9.49-33.42h-0.285c0.443,5.691,0.666,10.113,0.666,13.266v20.154H80.31v-46.401
				h16.694l9.68,32.944h0.254l9.49-32.944h16.726v46.401h-11.521v-20.344c0-1.059,0.016-2.232,0.048-3.523
				c0.031-1.291,0.175-4.453,0.429-9.49h-0.286l-9.362,33.357H100.527z"/>
			<path style="fill:#A4A9AD;" d="M182.793,264.77h-14.156l-9.172-17.742l-3.713,2.223v15.52h-12.601V218.37h12.601v20.153
				c0.635-1.248,1.914-3.226,3.84-5.934l9.744-14.219h13.711l-14.632,20.788L182.793,264.77z"/>
			<path style="fill:#A4A9AD;" d="M213.864,218.368h14.027L212.69,264.77h-14.759l-15.139-46.401h14.092l6.316,23.519
				c1.312,5.227,2.031,8.865,2.158,10.918c0.147-1.481,0.443-3.333,0.889-5.555c0.443-2.222,0.835-3.967,1.174-5.236
				L213.864,218.368z"/>
		</g>
	</g>
	<polygon style="fill:#D1D3D3;" points="219.821,50.525 270.346,50.525 219.821,0 	"/>
	<g>
		<polygon style="fill:#FB9200;" points="194.747,161.469 108.441,161.469 144.364,71.483 158.823,71.483 		"/>
		<rect x="96.316" y="158.537" style="fill:#FF671B;" width="110.556" height="12.899"/>
		<path style="fill:#FFFFFF;" d="M180.234,125.115h-57.28l-7.023,17.591h71.326L180.234,125.115z M165.722,88.764h-28.256
			l-7.021,17.59h42.301L165.722,88.764z"/>
	</g>
</g>
</svg>