<?xml version="1.0" encoding="iso-8859-1"?>
<!-- Uploaded to: SVG Repo, www.svgrepo.com, Generator: SVG Repo Mixer Tools -->
<svg version="1.1" id="Layer_1" xmlns="http://www.w3.org/2000/svg" xmlns:xlink="http://www.w3.org/1999/xlink" 
	 viewBox="0 0 303.188 303.188" xml:space="preserve">
<g>
	<polygon style="fill:#E8E8E8;" points="219.821,0 32.842,0 32.842,303.188 270.346,303.188 270.346,50.525 	"/>
	<g>
		<rect x="106.092" y="69.553" style="fill:#333E48;" width="89.511" height="108.707"/>
		<rect x="111.454" y="126.587" style="fill:#38A3FF;" width="78.788" height="46.313"/>
		<rect x="111.454" y="74.914" style="fill:#38A3FF;" width="78.788" height="46.312"/>
		<g>
			<rect x="92.203" y="69.553" style="fill:#A4A9AD;" width="13.89" height="108.707"/>
			<rect x="95.436" y="167.872" style="fill:#FFFFFF;" width="7.872" height="5.778"/>
			<rect x="95.436" y="154.485" style="fill:#FFFFFF;" width="7.872" height="5.777"/>
			<rect x="95.436" y="141.098" style="fill:#FFFFFF;" width="7.872" height="5.778"/>
			<rect x="95.436" y="127.711" style="fill:#FFFFFF;" width="7.872" height="5.778"/>
			<rect x="95.436" y="114.323" style="fill:#FFFFFF;" width="7.872" height="5.778"/>
			<rect x="95.436" y="100.936" style="fill:#FFFFFF;" width="7.872" height="5.778"/>
			<rect x="95.436" y="87.549" style="fill:#FFFFFF;" width="7.872" height="5.777"/>
			<rect x="95.436" y="74.161" style="fill:#FFFFFF;" width="7.872" height="5.778"/>
		</g>
		<g>
			<rect x="195.604" y="69.553" style="fill:#A4A9AD;" width="13.889" height="108.707"/>
			<rect x="198.387" y="167.872" style="fill:#FFFFFF;" width="7.872" height="5.778"/>
			<rect x="198.387" y="154.485" style="fill:#FFFFFF;" width="7.872" height="5.777"/>
			<rect x="198.387" y="141.098" style="fill:#FFFFFF;" width="7.872" height="5.778"/>
			<rect x="198.387" y="127.711" style="fill:#FFFFFF;" width="7.872" height="5.778"/>
			<rect x="198.387" y="114.323" style="fill:#FFFFFF;" width="7.872" height="5.778"/>
			<rect x="198.387" y="100.936" style="fill:#FFFFFF;" width="7.872" height="5.778"/>
			<rect x="198.387" y="87.549" style="fill:#FFFFFF;" width="7.872" height="5.777"/>
			<rect x="198.387" y="74.161" style="fill:#FFFFFF;" width="7.872" height="5.778"/>
		</g>
	</g>
	<polygon style="fill:#333E48;" points="227.64,25.263 32.842,25.263 32.842,0 219.821,0 	"/>
	<g>
		<g>
			<path style="fill:#A4A9AD;" d="M87.508,273.871l-8.76-30.85h-0.264c0.41,5.254,0.615,9.336,0.615,12.246v18.604H68.846v-42.832
				h15.41l8.936,30.41h0.234l8.76-30.41h15.439v42.832H106.99v-18.779c0-0.977,0.015-2.061,0.044-3.252s0.161-4.111,0.396-8.76
				h-0.264l-8.643,30.791L87.508,273.871L87.508,273.871z"/>
			<path style="fill:#A4A9AD;" d="M157.938,244.662c0,4.785-1.411,8.481-4.233,11.089c-2.822,2.607-6.831,3.911-12.026,3.911h-3.252
				v14.209h-11.572v-42.832h14.824c5.41,0,9.473,1.182,12.188,3.545C156.58,236.947,157.938,240.307,157.938,244.662z
				 M138.426,250.229h2.109c1.738,0,3.12-0.488,4.145-1.465c1.025-0.977,1.538-2.324,1.538-4.043c0-2.891-1.602-4.336-4.805-4.336
				h-2.988v9.844H138.426z"/>
			<path style="fill:#A4A9AD;" d="M190.193,273.871h-25.43v-42.832h25.43v9.287h-13.857v6.738h12.832v9.287h-12.832v8.086h13.857
				V273.871z"/>
			<path style="fill:#A4A9AD;" d="M214.891,248.793h18.486v23.086c-5.02,1.719-10.537,2.578-16.553,2.578
				c-6.602,0-11.704-1.914-15.308-5.742s-5.405-9.287-5.405-16.377c0-6.914,1.973-12.295,5.918-16.143
				c3.945-3.848,9.473-5.771,16.582-5.771c2.695,0,5.239,0.254,7.632,0.762s4.478,1.152,6.255,1.934l-3.662,9.082
				c-3.086-1.523-6.475-2.285-10.166-2.285c-3.379,0-5.991,1.099-7.837,3.296c-1.846,2.197-2.768,5.337-2.768,9.419
				c0,4.004,0.835,7.057,2.505,9.155c1.67,2.1,4.077,3.149,7.222,3.149c1.719,0,3.301-0.166,4.746-0.498v-6.709h-7.646v-8.936
				H214.891z"/>
		</g>
	</g>
	<polygon style="fill:#D1D3D3;" points="219.821,50.525 270.346,50.525 219.821,0 	"/>
</g>
</svg>