<?xml version="1.0" encoding="iso-8859-1"?>
<!-- Uploaded to: SVG Repo, www.svgrepo.com, Generator: SVG Repo Mixer Tools -->
<svg height="800px" width="800px" version="1.1" id="Layer_1" xmlns="http://www.w3.org/2000/svg" xmlns:xlink="http://www.w3.org/1999/xlink" 
	 viewBox="0 0 303.188 303.188" xml:space="preserve">
<g>
	<polygon style="fill:#E8E8E8;" points="219.821,0 32.842,0 32.842,303.188 270.346,303.188 270.346,50.525 	"/>
	<path style="fill:#A4A9AD;" d="M207.405,91.785c-0.033-0.475-0.248-0.953-0.582-1.287l-23.507-23.506
		c-0.375-0.375-0.884-0.586-1.414-0.586h-85.81c-1.054,0-2,0.952-2,2v85.811c0,0.53,0.211,1.039,0.586,1.414
		c0,0,23.504,23.503,23.506,23.505c0.355,0.356,0.886,0.587,1.415,0.587h85.811c1.105,0,2-0.896,2-2c0,0,0-85.753,0-85.811
		C207.409,91.869,207.407,91.827,207.405,91.785z M117.599,172.894l-19.507-19.507V73.233l19.507,19.507V172.894z M117.569,87.054
		L100.92,70.405h80.154l19.507,19.506h-80.154L117.569,87.054z M203.409,175.722h-81.811v-81.81h81.811V175.722z"/>
	<g>
		<path style="fill:#A4A9AD;" d="M139.674,249.816c0,8.073-1.981,14.21-5.94,18.411c-3.96,4.201-9.758,6.301-17.394,6.301
			c-7.526,0-13.296-2.111-17.312-6.334c-4.015-4.222-6.021-10.371-6.021-18.444c0-7.985,1.996-14.083,5.989-18.295
			c3.992-4.211,9.796-6.317,17.409-6.317c7.636,0,13.423,2.089,17.361,6.268C137.704,235.584,139.674,241.721,139.674,249.816z
			 M106.659,249.816c0,9.276,3.227,13.915,9.681,13.915c3.282,0,5.716-1.126,7.302-3.38c1.586-2.253,2.38-5.765,2.38-10.534
			c0-4.792-0.804-8.33-2.412-10.617c-1.608-2.286-4.01-3.429-7.204-3.429C109.907,235.77,106.659,240.452,106.659,249.816z"/>
		<path style="fill:#A4A9AD;" d="M148.338,225.892h16.736c6.52,0,11.36,0.968,14.522,2.905c3.161,1.936,4.742,4.95,4.742,9.041
			c0,2.691-0.689,4.988-2.068,6.892c-1.378,1.903-3.194,3.129-5.447,3.676v0.328c2.975,0.788,5.13,2.1,6.465,3.938
			c1.334,1.838,2.002,4.223,2.002,7.154c0,4.354-1.636,7.783-4.906,10.288c-3.27,2.506-7.729,3.758-13.373,3.758h-18.673V225.892z
			 M161.301,244.302h3.905c1.859,0,3.298-0.382,4.315-1.148c1.018-0.766,1.525-1.903,1.525-3.413c0-2.691-2.034-4.037-6.104-4.037
			h-3.643v8.598H161.301z M161.301,253.787v10.075h4.561c4.047,0,6.071-1.707,6.071-5.12c0-1.597-0.542-2.822-1.625-3.676
			c-1.083-0.853-2.652-1.28-4.709-1.28L161.301,253.787L161.301,253.787z"/>
		<path style="fill:#A4A9AD;" d="M189.852,288.935c-2.363,0-4.605-0.23-6.727-0.689v-10.075c0.7,0.131,1.444,0.279,2.231,0.443
			c0.788,0.164,1.641,0.246,2.56,0.246c2.145,0,3.676-0.646,4.595-1.936c0.919-1.292,1.378-3.501,1.378-6.629v-44.402h13.029v43.287
			c0,6.498-1.423,11.415-4.267,14.751C199.806,287.266,195.54,288.935,189.852,288.935z"/>
	</g>
	<polygon style="fill:#004A94;" points="227.64,25.263 32.842,25.263 32.842,0 219.821,0 	"/>
	<polygon style="fill:#D1D3D3;" points="219.821,50.525 270.346,50.525 219.821,0 	"/>
</g>
</svg>