<?xml version="1.0" encoding="iso-8859-1"?>
<!-- Uploaded to: SVG Repo, www.svgrepo.com, Generator: SVG Repo Mixer Tools -->
<svg version="1.1" id="Layer_1" xmlns="http://www.w3.org/2000/svg" xmlns:xlink="http://www.w3.org/1999/xlink" 
	 viewBox="0 0 303.188 303.188" xml:space="preserve">
<g>
	<polygon style="fill:#E8E8E8;" points="219.821,0 32.842,0 32.842,303.188 270.346,303.188 270.346,50.525 	"/>
	<g>
		<rect x="92.817" y="166.37" style="fill:#38A3FF;" width="49.543" height="12.865"/>
		<rect x="92.817" y="141.728" style="fill:#38A3FF;" width="107.543" height="12.865"/>
		<rect x="92.817" y="117.087" style="fill:#38A3FF;" width="117.551" height="12.865"/>
	</g>
	<path style="fill:#38A3FF;" d="M117.667,104.217c-1.26,0-2.437-0.764-2.92-1.987c-2.487-6.298-8.172-6.909-11.333-6.712
		c-5.387,0.333-9.65,3.229-10.106,4.997c-0.434,1.679-2.147,2.69-3.826,2.255c-1.679-0.433-2.69-2.146-2.256-3.825
		c1.304-5.05,8.097-9.219,15.801-9.695c4.568-0.29,8.63,0.842,11.824,3.146c1.079-4.168,3.516-7.706,7.164-10.229
		c5.815-4.021,13.649-4.619,19.046-1.454c1.497,0.877,1.999,2.802,1.122,4.298c-0.878,1.497-2.804,1.996-4.298,1.121
		c-3.26-1.91-8.546-1.393-12.298,1.202c-4.083,2.823-5.795,7.516-4.822,13.213c0.271,1.586-0.7,3.12-2.249,3.554
		C118.232,104.179,117.947,104.217,117.667,104.217z"/>
	<path style="fill:#38A3FF;" d="M118.552,78.929c-0.782,0-1.511-0.474-1.812-1.233c-1.541-3.905-5.064-4.281-7.027-4.163
		c-3.34,0.207-5.984,2.003-6.268,3.1c-0.269,1.041-1.33,1.669-2.372,1.398c-1.042-0.268-1.668-1.33-1.4-2.372
		c0.809-3.132,5.021-5.717,9.799-6.013c2.831-0.176,5.352,0.521,7.332,1.951c0.669-2.586,2.18-4.779,4.442-6.343
		c3.607-2.493,8.465-2.865,11.812-0.903c0.929,0.545,1.24,1.738,0.696,2.666c-0.543,0.928-1.737,1.24-2.665,0.695
		c-2.02-1.186-5.299-0.863-7.627,0.746c-2.532,1.751-3.595,4.66-2.99,8.193c0.168,0.982-0.435,1.936-1.396,2.205
		C118.902,78.905,118.727,78.929,118.552,78.929z"/>
	<g>
		<path style="fill:#A4A9AD;" d="M129.631,249.816c0,8.072-1.98,14.209-5.94,18.41s-9.758,6.301-17.394,6.301
			c-7.526,0-13.296-2.111-17.311-6.334c-4.015-4.222-6.022-10.37-6.022-18.443c0-7.985,1.996-14.084,5.989-18.295
			c3.992-4.212,9.796-6.318,17.41-6.318c7.635,0,13.422,2.09,17.36,6.268C127.662,235.584,129.631,241.721,129.631,249.816z
			 M96.616,249.816c0,9.275,3.227,13.914,9.681,13.914c3.282,0,5.716-1.127,7.302-3.381c1.586-2.252,2.379-5.764,2.379-10.533
			c0-4.792-0.804-8.33-2.412-10.617c-1.608-2.285-4.01-3.43-7.204-3.43C99.865,235.77,96.616,240.452,96.616,249.816z"/>
		<path style="fill:#A4A9AD;" d="M179.022,248.864c0,8.007-2.205,14.177-6.613,18.509s-10.605,6.498-18.591,6.498h-15.523v-47.979
			H154.9c7.701,0,13.646,1.97,17.836,5.907C176.926,235.737,179.022,241.426,179.022,248.864z M165.566,249.324
			c0-4.398-0.87-7.658-2.609-9.78s-4.381-3.183-7.926-3.183h-3.773v26.877h2.888c3.938,0,6.826-1.142,8.664-3.43
			C164.647,257.523,165.566,254.027,165.566,249.324z"/>
		<path style="fill:#A4A9AD;" d="M208.787,273.871h-12.963v-37.379h-11.716v-10.6h36.361v10.6h-11.683v37.379H208.787z"/>
	</g>
	<polygon style="fill:#38A3FF;" points="227.64,25.263 32.842,25.263 32.842,0 219.821,0 	"/>
	<polygon style="fill:#D1D3D3;" points="219.821,50.525 270.346,50.525 219.821,0 	"/>
</g>
</svg>