<?xml version="1.0" encoding="iso-8859-1"?>
<!-- Uploaded to: SVG Repo, www.svgrepo.com, Generator: SVG Repo Mixer Tools -->
<svg height="800px" width="800px" version="1.1" id="Layer_1" xmlns="http://www.w3.org/2000/svg" xmlns:xlink="http://www.w3.org/1999/xlink" 
	 viewBox="0 0 303.188 303.188" xml:space="preserve">
<g>
	<polygon style="fill:#E8E8E8;" points="219.821,0 32.842,0 32.842,303.188 270.346,303.188 270.346,50.525 	"/>
	<polygon style="fill:#A35EB5;" points="227.64,25.263 32.842,25.263 32.842,0 219.821,0 	"/>
	<g>
		<path style="fill:#A4A9AD;" d="M108.267,241.152c0,5.36-1.58,9.5-4.742,12.421c-3.162,2.921-7.652,4.382-13.471,4.382H86.41
			v15.916H73.447v-47.979h16.606c6.06,0,10.61,1.324,13.651,3.972C106.746,232.51,108.267,236.273,108.267,241.152z M86.41,247.387
			h2.362c1.947,0,3.496-0.546,4.645-1.641c1.148-1.094,1.723-2.604,1.723-4.528c0-3.237-1.794-4.856-5.382-4.856H86.41V247.387z"/>
		<path style="fill:#A4A9AD;" d="M128.876,256.412v17.459h-12.963v-47.979h15.72c13.04,0,19.56,4.725,19.56,14.177
			c0,5.559-2.713,9.857-8.139,12.898l13.98,20.904h-14.703l-10.174-17.459H128.876z M128.876,246.666h2.429
			c4.528,0,6.793-2.002,6.793-6.006c0-3.304-2.221-4.956-6.661-4.956h-2.561V246.666z"/>
		<path style="fill:#A4A9AD;" d="M206.293,249.816c0,8.072-1.98,14.209-5.94,18.41s-9.758,6.301-17.394,6.301
			c-7.526,0-13.297-2.111-17.311-6.334c-4.015-4.222-6.021-10.37-6.021-18.443c0-7.985,1.996-14.084,5.989-18.295
			c3.992-4.212,9.796-6.318,17.409-6.318c7.636,0,13.423,2.09,17.361,6.268C204.323,235.584,206.293,241.721,206.293,249.816z
			 M173.278,249.816c0,9.275,3.227,13.914,9.681,13.914c3.282,0,5.716-1.127,7.302-3.381c1.586-2.252,2.38-5.764,2.38-10.533
			c0-4.792-0.805-8.33-2.412-10.617c-1.608-2.285-4.01-3.43-7.204-3.43C176.527,235.77,173.278,240.452,173.278,249.816z"/>
		<path style="fill:#A4A9AD;" d="M211.183,288.935c-2.363,0-4.605-0.23-6.728-0.689V278.17c0.7,0.131,1.444,0.279,2.232,0.443
			s1.641,0.246,2.559,0.246c2.145,0,3.676-0.646,4.595-1.936c0.919-1.292,1.378-3.501,1.378-6.63v-44.402h13.029v43.286
			c0,6.498-1.423,11.416-4.267,14.752C221.137,287.266,216.871,288.935,211.183,288.935z"/>
	</g>
	<g>
		<g>
			<path style="fill:#A35EB5;" d="M157,108.842c0,9.893-3.091,17.457-9.272,22.695c-6.183,5.239-14.973,7.857-26.373,7.857h-8.361
				v32.691H93.505v-91.91h29.359c11.147,0,19.623,2.399,25.429,7.197C154.097,92.173,157,99.329,157,108.842z M112.993,123.428
				h6.413c5.993,0,10.478-1.184,13.453-3.553c2.976-2.367,4.464-5.814,4.464-10.342c0-4.567-1.248-7.942-3.74-10.121
				c-2.494-2.178-6.403-3.269-11.725-3.269h-8.865V123.428z"/>
			<path style="fill:#A35EB5;" d="M212.071,100.48c2.598,0,4.756,0.189,6.475,0.566l-1.446,17.98
				c-1.551-0.419-3.436-0.629-5.657-0.629c-6.12,0-10.887,1.571-14.303,4.715c-3.416,3.143-5.123,7.543-5.123,13.201v35.771h-19.174
				v-70.285h14.521l2.829,11.819h0.942c2.18-3.938,5.124-7.114,8.833-9.524C203.678,101.687,207.712,100.48,212.071,100.48z"/>
		</g>
	</g>
	<polygon style="fill:#D1D3D3;" points="219.821,50.525 270.346,50.525 219.821,0 	"/>
</g>
</svg>