<?xml version="1.0" encoding="iso-8859-1"?>
<!-- Uploaded to: SVG Repo, www.svgrepo.com, Generator: SVG Repo Mixer Tools -->
<svg height="800px" width="800px" version="1.1" id="Layer_1" xmlns="http://www.w3.org/2000/svg" xmlns:xlink="http://www.w3.org/1999/xlink" 
	 viewBox="0 0 303.188 303.188" xml:space="preserve">
<g>
	<polygon style="fill:#E8E8E8;" points="219.821,0 32.842,0 32.842,303.188 270.346,303.188 270.346,50.525 	"/>
	<polygon style="fill:#38A3FF;" points="227.639,25.263 32.842,25.263 32.842,0 219.821,0 	"/>
	<g>
		<path style="fill:#A4A9AD;" d="M125.562,241.152c0,5.361-1.581,9.501-4.742,12.421c-3.162,2.921-7.652,4.381-13.472,4.381h-3.643
			v15.917H90.742v-47.979h16.606c6.06,0,10.611,1.324,13.652,3.971C124.041,232.51,125.562,236.273,125.562,241.152z
			 M103.705,247.387h2.363c1.947,0,3.495-0.546,4.644-1.641c1.149-1.094,1.723-2.604,1.723-4.529c0-3.238-1.794-4.857-5.382-4.857
			h-3.348C103.705,236.36,103.705,247.387,103.705,247.387z"/>
		<path style="fill:#A4A9AD;" d="M164.581,259.3c0,2.976-0.754,5.617-2.264,7.925c-1.51,2.309-3.688,4.102-6.531,5.382
			c-2.844,1.28-6.18,1.92-10.01,1.92c-3.193,0-5.873-0.225-8.04-0.673c-2.166-0.448-4.419-1.23-6.76-2.346v-11.552
			c2.472,1.269,5.043,2.259,7.712,2.97c2.67,0.711,5.119,1.067,7.352,1.067c1.924,0,3.336-0.333,4.232-1.001
			c0.898-0.667,1.346-1.526,1.346-2.576c0-0.656-0.18-1.231-0.541-1.723c-0.361-0.492-0.941-0.99-1.738-1.493
			c-0.801-0.503-2.928-1.531-6.385-3.085c-3.128-1.422-5.475-2.8-7.038-4.135c-1.564-1.334-2.724-2.866-3.479-4.595
			c-0.755-1.728-1.132-3.774-1.132-6.137c0-4.419,1.608-7.865,4.824-10.337s7.636-3.708,13.259-3.708
			c4.965,0,10.031,1.148,15.193,3.446l-3.971,10.009c-4.484-2.056-8.357-3.085-11.617-3.085c-1.686,0-2.91,0.295-3.676,0.886
			c-0.766,0.591-1.148,1.324-1.148,2.199c0,0.941,0.486,1.784,1.461,2.527c0.973,0.744,3.615,2.101,7.926,4.07
			c4.135,1.859,7.006,3.856,8.613,5.989C163.778,253.376,164.581,256.063,164.581,259.3z"/>
		<path style="fill:#A4A9AD;" d="M212.726,248.864c0,8.007-2.205,14.177-6.613,18.509s-10.605,6.498-18.591,6.498H172v-47.979
			h16.605c7.701,0,13.646,1.969,17.836,5.907C210.63,235.737,212.726,241.426,212.726,248.864z M199.27,249.324
			c0-4.398-0.87-7.657-2.609-9.78c-1.739-2.122-4.381-3.183-7.926-3.183h-3.774v26.877h2.888c3.939,0,6.826-1.143,8.664-3.43
			C198.352,257.523,199.27,254.028,199.27,249.324z"/>
	</g>
	<g>
		<g>
			<path style="fill:#38A3FF;" d="M154.234,108.842c0,9.892-3.091,17.456-9.273,22.695c-6.182,5.239-14.973,7.858-26.372,7.858
				h-8.361v32.69H90.739v-91.91h29.358c11.148,0,19.624,2.4,25.429,7.198C151.331,92.173,154.234,99.329,154.234,108.842z
				 M110.228,123.427h6.413c5.993,0,10.477-1.184,13.453-3.552c2.975-2.368,4.463-5.815,4.463-10.342
				c0-4.567-1.248-7.941-3.74-10.121c-2.494-2.179-6.403-3.269-11.725-3.269h-8.864C110.228,96.143,110.228,123.427,110.228,123.427
				z"/>
			<path style="fill:#38A3FF;" d="M219.111,151.214c0,7.209-2.504,12.699-7.512,16.471c-5.009,3.772-12.501,5.658-22.475,5.658
				c-5.114,0-9.472-0.346-13.076-1.037c-3.605-0.692-6.978-1.707-10.122-3.049v-15.842c3.562,1.677,7.576,3.081,12.039,4.212
				c4.463,1.131,8.393,1.697,11.787,1.697c6.956,0,10.436-2.012,10.436-6.035c0-1.509-0.462-2.735-1.383-3.678
				c-0.922-0.943-2.515-2.012-4.778-3.206s-5.281-2.587-9.053-4.181c-5.406-2.263-9.377-4.358-11.913-6.287
				c-2.536-1.927-4.38-4.138-5.532-6.632c-1.153-2.493-1.729-5.564-1.729-9.21c0-6.244,2.42-11.074,7.261-14.49
				s11.703-5.124,20.589-5.124c8.465,0,16.701,1.845,24.706,5.532l-5.784,13.831c-3.521-1.509-6.811-2.744-9.87-3.709
				c-3.06-0.963-6.183-1.446-9.367-1.446c-5.658,0-8.487,1.53-8.487,4.589c0,1.719,0.912,3.206,2.735,4.463
				s5.815,3.123,11.976,5.595c5.49,2.222,9.514,4.297,12.07,6.224c2.556,1.928,4.442,4.149,5.658,6.664
				C218.503,144.739,219.111,147.736,219.111,151.214z"/>
		</g>
	</g>
	<polygon style="fill:#D1D3D3;" points="219.821,50.525 270.346,50.525 219.821,0 	"/>
</g>
</svg>