<?xml version="1.0" encoding="iso-8859-1"?>
<!-- Uploaded to: SVG Repo, www.svgrepo.com, Generator: SVG Repo Mixer Tools -->
<svg version="1.1" id="Layer_1" xmlns="http://www.w3.org/2000/svg" xmlns:xlink="http://www.w3.org/1999/xlink" 
	 viewBox="0 0 303.188 303.188" xml:space="preserve">
<g>
	<polygon style="fill:#E4E4E4;" points="219.821,0 32.842,0 32.842,303.188 270.346,303.188 270.346,50.525 	"/>
	<polygon style="fill:#FB9200;" points="227.64,25.263 32.842,25.263 32.842,0 219.821,0 	"/>
	<g>
		<rect x="185.948" y="87.902" style="fill:#A4A9AD;" width="14.419" height="62.587"/>
		<g>
			<polygon style="fill:#D1D3D3;" points="203.589,133.525 182.727,137.298 182.727,143.689 203.589,139.916 			"/>
			<polygon style="fill:#D1D3D3;" points="203.589,120.584 182.727,124.357 182.727,130.748 203.589,126.976 			"/>
			<polygon style="fill:#D1D3D3;" points="203.589,107.644 182.727,111.416 182.727,117.807 203.589,114.035 			"/>
			<polygon style="fill:#D1D3D3;" points="203.589,94.703 182.727,98.475 182.727,104.866 203.589,101.093 			"/>
		</g>
		<rect x="188.365" y="155" style="fill:#A4A9AD;" width="9.585" height="18.042"/>
		<polygon style="fill:#A4A9AD;" points="182.727,147.952 163.274,155.282 104.368,155.282 111.416,167.123 163.274,167.123 
			182.727,159.792 203.589,159.792 203.589,147.952 		"/>
		<polygon style="fill:#A4A9AD;" points="182.727,90.44 163.274,83.11 104.368,83.11 111.416,71.27 163.274,71.27 182.727,78.599 
			203.589,78.599 203.589,90.44 		"/>
		<g>
			<rect x="89.693" y="83.11" style="fill:#FB9200;" width="71.052" height="72.171"/>
			<g>
				<rect x="100.176" y="92.185" style="fill:#FF671B;" width="50.086" height="22.828"/>
				<rect x="117.142" y="98.818" style="fill:#FFFFFF;" width="16.154" height="3.953"/>
			</g>
			<g>
				<rect x="100.176" y="123.38" style="fill:#FF671B;" width="50.086" height="22.827"/>
				<rect x="117.142" y="130.013" style="fill:#FFFFFF;" width="16.154" height="3.954"/>
			</g>
		</g>
		<rect x="182.727" y="167.123" style="fill:#A4A9AD;" width="20.862" height="11.84"/>
	</g>
	<g>
		<path style="fill:#A4A9AD;" d="M99.11,256.412v17.459H86.147v-47.979h15.72c13.04,0,19.559,4.726,19.559,14.177
			c0,5.558-2.713,9.857-8.139,12.898l13.98,20.905h-14.702l-10.174-17.459L99.11,256.412L99.11,256.412z M99.11,246.666h2.429
			c4.529,0,6.793-2.002,6.793-6.006c0-3.303-2.221-4.956-6.662-4.956h-2.56V246.666z"/>
		<path style="fill:#A4A9AD;" d="M161.069,273.871l-2.361-8.992h-15.59l-2.428,8.992h-14.243l15.655-48.176h17.295l15.85,48.176
			H161.069z M156.017,254.246l-2.068-7.876c-0.48-1.751-1.066-4.015-1.756-6.794c-0.688-2.778-1.143-4.769-1.361-5.973
			c-0.197,1.116-0.586,2.954-1.164,5.513c-0.58,2.56-1.867,7.603-3.857,15.129h10.206V254.246z"/>
		<path style="fill:#A4A9AD;" d="M193.396,256.412v17.459h-12.963v-47.979h15.72c13.039,0,19.559,4.726,19.559,14.177
			c0,5.558-2.713,9.857-8.139,12.898l13.98,20.905h-14.702l-10.174-17.459L193.396,256.412L193.396,256.412z M193.396,246.666h2.428
			c4.529,0,6.794-2.002,6.794-6.006c0-3.303-2.221-4.956-6.662-4.956h-2.56V246.666z"/>
	</g>
	<polygon style="fill:#D1D3D3;" points="219.821,50.525 270.346,50.525 219.821,0 	"/>
</g>
</svg>