<?xml version="1.0" encoding="iso-8859-1"?>
<!-- Uploaded to: SVG Repo, www.svgrepo.com, Generator: SVG Repo Mixer Tools -->
<svg height="800px" width="800px" version="1.1" id="Layer_1" xmlns="http://www.w3.org/2000/svg" xmlns:xlink="http://www.w3.org/1999/xlink" 
	 viewBox="0 0 303.188 303.188" xml:space="preserve">
<g>
	<polygon style="fill:#E8E8E8;" points="219.821,0 32.842,0 32.842,303.188 270.346,303.188 270.346,50.525 	"/>
	<path style="fill:#004A94;" d="M153.266,68.712c-0.557-0.016-1.111-0.042-1.672-0.042c-18.323,0-34.553,8.928-44.602,22.664
		l16.607,28.765L153.266,68.712z M200.098,97.463c-8.539-15.629-24.41-26.676-42.99-28.519l-16.465,28.519H200.098z M104.843,94.501
		c-5.368,8.517-8.486,18.594-8.486,29.405c0,7.928,1.683,15.459,4.69,22.273h33.632L104.843,94.501z M201.812,100.907h-33.043
		l29.933,51.848c5.153-8.397,8.129-18.274,8.129-28.849C206.831,115.695,205.025,107.911,201.812,100.907z M102.711,149.623
		c8.418,15.968,24.418,27.316,43.217,29.231l16.877-29.231H102.711z M149.765,179.096c0.608,0.02,1.215,0.047,1.829,0.047
		c18.555,0,34.96-9.158,44.977-23.191l-16.722-28.964L149.765,179.096z"/>
	<polygon style="fill:#004A94;" points="227.64,25.263 32.842,25.263 32.842,0 219.821,0 	"/>
	<g>
		<path style="fill:#A4A9AD;" d="M86.935,256.412v17.459H73.972v-47.979h15.72c13.04,0,19.559,4.725,19.559,14.177
			c0,5.559-2.713,9.857-8.139,12.898l13.98,20.904H100.39l-10.174-17.459H86.935z M86.935,246.666h2.429
			c4.529,0,6.793-2.002,6.793-6.006c0-3.304-2.221-4.956-6.662-4.956h-2.56V246.666z"/>
		<path style="fill:#A4A9AD;" d="M148.895,273.871l-2.362-8.992h-15.588l-2.429,8.992h-14.243l15.654-48.176h17.295l15.851,48.176
			H148.895z M143.841,254.246l-2.067-7.876c-0.481-1.751-1.066-4.015-1.756-6.794c-0.688-2.777-1.143-4.768-1.362-5.973
			c-0.197,1.116-0.586,2.954-1.165,5.514c-0.58,2.561-1.865,7.604-3.856,15.129L143.841,254.246L143.841,254.246z"/>
		<path style="fill:#A4A9AD;" d="M220.076,273.871h-15.325l-4.595-20.904c-0.219-0.875-0.563-2.615-1.034-5.219
			s-0.815-4.779-1.033-6.53c-0.176,1.423-0.46,3.189-0.854,5.3s-0.782,4.053-1.165,5.825c-0.383,1.773-1.975,8.948-4.775,21.528
			H175.97l-11.88-47.979h12.503l5.219,24.056c1.181,5.316,1.99,9.55,2.428,12.7c0.284-2.231,0.793-5.262,1.526-9.091
			c0.732-3.828,1.416-7,2.051-9.517l4.233-18.148h12.012l4.102,18.148c0.699,2.909,1.411,6.269,2.133,10.075
			c0.722,3.807,1.203,6.65,1.443,8.532c0.284-2.429,1.062-6.64,2.33-12.635l5.317-24.121h12.503L220.076,273.871z"/>
	</g>
	<polygon style="fill:#D1D3D3;" points="219.821,50.525 270.346,50.525 219.821,0 	"/>
</g>
</svg>