<?xml version="1.0" encoding="iso-8859-1"?>
<!-- Uploaded to: SVG Repo, www.svgrepo.com, Generator: SVG Repo Mixer Tools -->
<svg version="1.1" id="Layer_1" xmlns="http://www.w3.org/2000/svg" xmlns:xlink="http://www.w3.org/1999/xlink" 
	 viewBox="0 0 303.188 303.188" xml:space="preserve">
<g>
	<polygon style="fill:#E8E8E8;" points="219.821,0 32.842,0 32.842,303.188 270.346,303.188 270.346,50.525 	"/>
	<g>
		<rect x="92.818" y="166.37" style="fill:#A4A9AD;" width="49.542" height="12.865"/>
		<rect x="92.818" y="141.729" style="fill:#A4A9AD;" width="107.542" height="12.865"/>
		<rect x="92.818" y="117.087" style="fill:#A4A9AD;" width="117.55" height="12.865"/>
		<rect x="92.818" y="92.445" style="fill:#A4A9AD;" width="82.209" height="12.865"/>
		<rect x="92.818" y="67.804" style="fill:#A4A9AD;" width="117.55" height="12.865"/>
	</g>
	<g>
		<path style="fill:#A4A9AD;" d="M108.283,256.412v17.459H95.32v-47.979h15.72c13.04,0,19.559,4.726,19.559,14.177
			c0,5.558-2.713,9.857-8.139,12.898l13.98,20.905h-14.702l-10.174-17.459L108.283,256.412L108.283,256.412z M108.283,246.666h2.429
			c4.529,0,6.793-2.002,6.793-6.006c0-3.303-2.221-4.956-6.662-4.956h-2.56V246.666z"/>
		<path style="fill:#A4A9AD;" d="M161.974,273.871h-12.963v-37.379h-11.716v-10.6h36.361v10.6h-11.682V273.871z"/>
		<path style="fill:#A4A9AD;" d="M193.281,273.871h-12.766v-47.979h28.354v10.403H193.28v9.156h14.374v10.403H193.28v18.017H193.281
			z"/>
	</g>
	<polygon style="fill:#A4A9AD;" points="227.64,25.263 32.842,25.263 32.842,0 219.821,0 	"/>
	<polygon style="fill:#D1D3D3;" points="219.821,50.525 270.346,50.525 219.821,0 	"/>
</g>
</svg>