<?xml version="1.0" encoding="iso-8859-1"?>
<!-- Uploaded to: SVG Repo, www.svgrepo.com, Generator: SVG Repo Mixer Tools -->
<svg height="800px" width="800px" version="1.1" id="Layer_1" xmlns="http://www.w3.org/2000/svg" xmlns:xlink="http://www.w3.org/1999/xlink" 
	 viewBox="0 0 303.188 303.188" xml:space="preserve">
<g>
	<polygon style="fill:#E8E8E8;" points="219.821,0 32.842,0 32.842,303.188 270.346,303.188 270.346,50.525 	"/>
	<polygon style="fill:#FB9200;" points="227.639,25.263 32.842,25.263 32.842,0 219.821,0 	"/>
	<g>
		<path style="fill:#A4A9AD;" d="M119.818,259.301c0,2.975-0.754,5.617-2.264,7.925c-1.51,2.309-3.687,4.103-6.531,5.382
			c-2.844,1.28-6.181,1.92-10.009,1.92c-3.195,0-5.874-0.225-8.04-0.673s-4.42-1.23-6.76-2.347v-11.551
			c2.472,1.268,5.042,2.259,7.712,2.969c2.669,0.712,5.12,1.067,7.351,1.067c1.925,0,3.336-0.333,4.234-1.001
			c0.896-0.668,1.345-1.526,1.345-2.576c0-0.656-0.18-1.23-0.541-1.723c-0.361-0.492-0.941-0.99-1.739-1.494
			c-0.799-0.502-2.926-1.531-6.383-3.084c-3.129-1.422-5.476-2.801-7.04-4.135c-1.564-1.335-2.724-2.867-3.479-4.596
			c-0.755-1.728-1.132-3.773-1.132-6.137c0-4.418,1.608-7.864,4.824-10.337c3.216-2.472,7.635-3.708,13.258-3.708
			c4.966,0,10.031,1.148,15.194,3.445l-3.971,10.01c-4.485-2.057-8.358-3.086-11.618-3.086c-1.685,0-2.91,0.296-3.675,0.887
			c-0.766,0.591-1.148,1.324-1.148,2.199c0,0.94,0.486,1.783,1.46,2.526c0.974,0.744,3.615,2.101,7.926,4.069
			c4.135,1.859,7.006,3.856,8.614,5.989C119.015,253.377,119.818,256.063,119.818,259.301z"/>
		<path style="fill:#A4A9AD;" d="M154.179,225.892h14.506l-15.721,47.979h-15.26l-15.654-47.979h14.571l6.53,24.317
			c1.357,5.404,2.102,9.168,2.232,11.29c0.152-1.531,0.459-3.446,0.918-5.743c0.461-2.297,0.865-4.102,1.215-5.415L154.179,225.892z
			"/>
		<path style="fill:#A4A9AD;" d="M193.133,245.779h20.708v25.86c-5.623,1.925-11.804,2.888-18.542,2.888
			c-7.396,0-13.11-2.145-17.148-6.432c-4.036-4.288-6.055-10.404-6.055-18.346c0-7.744,2.21-13.771,6.629-18.082
			c4.419-4.31,10.611-6.465,18.575-6.465c3.019,0,5.868,0.284,8.549,0.853c2.68,0.569,5.016,1.292,7.007,2.166l-4.103,10.174
			c-3.457-1.706-7.253-2.56-11.388-2.56c-3.785,0-6.711,1.23-8.778,3.691c-2.068,2.461-3.102,5.979-3.102,10.551
			c0,4.485,0.936,7.904,2.806,10.256c1.871,2.352,4.566,3.527,8.09,3.527c1.925,0,3.697-0.186,5.316-0.558v-7.515h-8.566v-10.008
			H193.133z"/>
	</g>
	<g>
		<path style="fill:#FB9200;" d="M116.745,141.5c0,5.475-1.902,9.643-5.705,12.508c-3.804,2.864-9.493,4.297-17.067,4.297
			c-3.883,0-7.193-0.263-9.93-0.788s-5.299-1.296-7.686-2.316v-12.03c2.705,1.273,5.752,2.34,9.142,3.199
			c3.39,0.858,6.373,1.288,8.951,1.288c5.283,0,7.924-1.527,7.924-4.582c0-1.146-0.351-2.077-1.05-2.793
			c-0.701-0.717-1.91-1.528-3.628-2.435c-1.719-0.907-4.01-1.965-6.874-3.175c-4.106-1.719-7.121-3.31-9.046-4.774
			c-1.926-1.463-3.326-3.143-4.201-5.036c-0.875-1.893-1.313-4.225-1.313-6.994c0-4.741,1.838-8.409,5.514-11.003
			c3.676-2.594,8.887-3.892,15.634-3.892c6.429,0,12.682,1.401,18.762,4.201l-4.392,10.503c-2.673-1.146-5.172-2.084-7.495-2.816
			c-2.323-0.732-4.695-1.099-7.113-1.099c-4.297,0-6.445,1.162-6.445,3.485c0,1.306,0.692,2.435,2.077,3.39
			c1.384,0.954,4.416,2.371,9.094,4.248c4.169,1.688,7.224,3.263,9.165,4.727s3.373,3.15,4.297,5.061
			C116.283,136.583,116.745,138.859,116.745,141.5z"/>
		<path style="fill:#FB9200;" d="M140.805,157.35l-20.337-53.372h15.228l10.312,30.41c1.146,3.851,1.862,7.494,2.148,10.932h0.287
			c0.159-3.056,0.875-6.699,2.148-10.932l10.264-30.41h15.229l-20.337,53.372H140.805z"/>
		<path style="fill:#FB9200;" d="M230.172,103.978v7.399l-8.354,2.148c1.527,2.387,2.292,5.061,2.292,8.021
			c0,5.729-1.998,10.192-5.991,13.391c-3.995,3.198-9.54,4.798-16.637,4.798l-2.626-0.143l-2.148-0.238
			c-1.496,1.146-2.244,2.419-2.244,3.818c0,2.101,2.673,3.151,8.02,3.151h9.07c5.855,0,10.319,1.257,13.391,3.771
			c3.071,2.514,4.606,6.206,4.606,11.075c0,6.237-2.602,11.075-7.805,14.513c-5.204,3.437-12.675,5.155-22.413,5.155
			c-7.447,0-13.137-1.297-17.067-3.891c-3.931-2.594-5.895-6.229-5.895-10.908c0-3.215,1.002-5.904,3.007-8.068
			c2.005-2.163,4.948-3.707,8.831-4.63c-1.496-0.637-2.801-1.679-3.915-3.127s-1.671-2.984-1.671-4.607
			c0-2.036,0.589-3.73,1.767-5.084c1.177-1.352,2.88-2.681,5.108-3.986c-2.801-1.209-5.02-3.15-6.66-5.824
			c-1.639-2.673-2.458-5.824-2.458-9.452c0-5.824,1.893-10.327,5.681-13.51c3.787-3.183,9.197-4.774,16.231-4.774
			c1.496,0,3.27,0.136,5.323,0.406c2.053,0.271,3.365,0.47,3.938,0.597L230.172,103.978L230.172,103.978z M188.974,164.893
			c0,2.005,0.962,3.58,2.888,4.726c1.925,1.146,4.622,1.719,8.092,1.719c5.219,0,9.309-0.716,12.269-2.148
			c2.96-1.432,4.44-3.389,4.44-5.871c0-2.006-0.876-3.39-2.626-4.153c-1.75-0.765-4.456-1.146-8.115-1.146h-7.543
			c-2.673,0-4.91,0.629-6.707,1.886C189.872,161.16,188.974,162.823,188.974,164.893z M194.273,121.45
			c0,2.896,0.66,5.188,1.981,6.874c1.32,1.688,3.333,2.53,6.039,2.53c2.737,0,4.742-0.843,6.015-2.53
			c1.272-1.687,1.91-3.978,1.91-6.874c0-6.429-2.642-9.644-7.925-9.644C196.946,111.807,194.273,115.021,194.273,121.45z"/>
	</g>
	<polygon style="fill:#D1D3D3;" points="219.821,50.525 270.346,50.525 219.821,0 	"/>
</g>
</svg>