<?xml version="1.0" encoding="iso-8859-1"?>
<!-- Uploaded to: SVG Repo, www.svgrepo.com, Generator: SVG Repo Mixer Tools -->
<svg height="800px" width="800px" version="1.1" id="Layer_1" xmlns="http://www.w3.org/2000/svg" xmlns:xlink="http://www.w3.org/1999/xlink" 
	 viewBox="0 0 303.188 303.188" xml:space="preserve">
<g>
	<polygon style="fill:#E8E8E8;" points="219.821,0 32.842,0 32.842,303.188 270.346,303.188 270.346,50.525 	"/>
	<g>
		<path style="fill:#A4A9AD;" d="M114.978,259.3c0,2.976-0.754,5.617-2.264,7.925c-1.51,2.309-3.687,4.102-6.531,5.382
			s-6.181,1.92-10.009,1.92c-3.195,0-5.875-0.225-8.041-0.673s-4.419-1.23-6.76-2.346v-11.552c2.472,1.269,5.043,2.259,7.712,2.97
			s5.12,1.067,7.351,1.067c1.925,0,3.336-0.333,4.234-1.001c0.896-0.667,1.345-1.526,1.345-2.576c0-0.656-0.18-1.231-0.542-1.723
			c-0.361-0.492-0.941-0.99-1.739-1.493c-0.799-0.503-2.926-1.531-6.383-3.085c-3.129-1.422-5.476-2.8-7.04-4.135
			c-1.564-1.334-2.724-2.866-3.479-4.595c-0.755-1.728-1.132-3.774-1.132-6.137c0-4.419,1.608-7.865,4.824-10.337
			c3.216-2.472,7.635-3.708,13.258-3.708c4.966,0,10.031,1.148,15.194,3.446l-3.971,10.009c-4.485-2.056-8.358-3.085-11.618-3.085
			c-1.685,0-2.91,0.295-3.675,0.886c-0.766,0.591-1.148,1.324-1.148,2.199c0,0.941,0.486,1.784,1.46,2.527
			c0.974,0.744,3.615,2.101,7.926,4.07c4.135,1.859,7.006,3.856,8.614,5.989C114.174,253.376,114.978,256.063,114.978,259.3z"/>
		<path style="fill:#A4A9AD;" d="M174.214,273.871h-15.325l-4.595-20.905c-0.219-0.875-0.563-2.614-1.034-5.218
			s-0.815-4.78-1.033-6.531c-0.176,1.422-0.46,3.189-0.854,5.3c-0.394,2.112-0.782,4.053-1.165,5.825s-1.975,8.948-4.775,21.528
			h-15.325l-11.88-47.979h12.503l5.218,24.056c1.182,5.316,1.991,9.55,2.429,12.7c0.284-2.231,0.792-5.262,1.526-9.09
			c0.732-3.829,1.416-7.001,2.051-9.517l4.233-18.148H158.2l4.103,18.148c0.699,2.91,1.411,6.268,2.133,10.075
			s1.203,6.651,1.443,8.533c0.284-2.429,1.062-6.64,2.33-12.635l5.317-24.121h12.503L174.214,273.871z"/>
		<path style="fill:#A4A9AD;" d="M204.997,273.871h-12.766v-47.979h28.355v10.403h-15.589v9.156h14.374v10.403h-14.374
			L204.997,273.871L204.997,273.871z"/>
	</g>
	<polygon style="fill:#FB3449;" points="227.64,25.263 32.842,25.263 32.842,0 219.821,0 	"/>
	<polygon style="fill:#D1D3D3;" points="219.821,50.525 270.346,50.525 219.821,0 	"/>
	<path style="fill:#FB3449;" d="M198.286,89.418V64.28c-33.604,0-50.088,30.013-63.333,54.129
		c-12.618,22.976-21.247,36.925-34.631,36.925v25.139c28.427,0,42.997-25.117,55.609-48.041h33.747v-25.138h-18.784
		C178.964,95.871,187.03,89.418,198.286,89.418z"/>
</g>
</svg>